<svg width="328" height="341" viewBox="0 0 328 341" fill="none" xmlns="http://www.w3.org/2000/svg">
<mask id="mask0_523_92101" style="mask-type:alpha" maskUnits="userSpaceOnUse" x="0" y="0" width="328" height="341">
<rect width="328" height="341" rx="38" fill="#FFF7ED"/>
</mask>
<g mask="url(#mask0_523_92101)">
<g clip-path="url(#clip0_523_92101)">
<path d="M414.792 53.437C412.394 53.5388 409.259 55.3919 407.084 56.1521C404.774 57.0006 402.355 57.9645 399.977 58.589C397.707 59.1795 394.573 59.2677 392.485 60.2045C391.222 60.7814 391.188 61.562 389.837 62.01C388.878 62.3155 387.459 61.9489 386.459 62.01C385.108 62.0711 383.608 62.553 382.257 62.2747C380.318 61.8743 381.095 61.6435 379.933 60.4352C378.216 58.5008 375.958 57.1312 373.454 56.5051C373.535 55.0186 375.522 53.2606 374.974 51.7537C374.535 50.5387 372.117 49.5544 371.063 48.8756C368.342 46.986 365.753 44.9108 363.314 42.6648C360.727 40.4249 358.855 37.6486 356.43 35.3612C354.667 33.6982 353.289 32.646 352.134 31.112C352.08 30.6047 351.967 30.1057 351.796 29.6255C351.323 28.503 350.673 27.4647 349.87 26.5506C349.012 24.4125 348.1 22.4779 346.351 20.7946C345.898 20.014 341.973 19.6339 340.183 16.6065C338.284 13.4027 338.521 7.5516 338.055 6.8796C338.055 6.67597 338.021 6.45876 337.987 6.26191C337.406 2.95626 335.805 1.24574 333.643 -0.953506C332.617 -3.19347 330.016 -2.98985 328.847 -5.25697C327.327 -8.17571 327.219 -10.6193 325.057 -12.7643C320.943 -16.8369 318.639 -22.6744 315.369 -27.2698C314.018 -29.1907 309.208 -38.5103 309.965 -39.033C310.721 -39.5557 317.011 -31.2746 318.7 -30.3243C323.037 -27.8874 322.111 -33.9354 322.078 -37.1935C322.078 -40.1733 321.058 -40.5874 319.463 -43.031C319.004 -43.7098 318.477 -45.8344 317.727 -46.262C316.714 -46.839 316.146 -45.8344 314.856 -45.8344C312.329 -45.8344 310.998 -46.4385 309.053 -47.6738C305.141 -50.1514 305.911 -49.14 302.811 -47.925C301.149 -47.2462 299.021 -47.83 297.264 -47.5517C295.913 -47.3412 294.501 -46.5199 293.15 -46.3434C290.286 -45.9633 286.813 -46.2281 283.935 -46.3434C279.754 -46.5391 275.616 -47.2713 271.62 -48.5223C271.671 -48.7278 271.709 -48.9364 271.735 -49.1468C269.384 -49.588 268.445 -51.0202 266.512 -51.8619C265.648 -52.215 264.738 -52.4435 263.81 -52.5407C262.662 -53.5589 262.155 -54.5227 260.655 -54.9775C259.554 -55.3169 257.913 -55.2151 256.744 -55.4323C254.406 -55.8803 251.083 -56.6269 249.164 -54.9096C247.408 -53.3281 248.232 -51.4003 248.326 -49.2893C248.367 -48.4544 248.272 -47.5585 248.272 -46.6828C248.132 -46.4166 247.967 -46.1644 247.779 -45.9294C246.664 -44.5718 244.286 -42.7799 242.206 -42.936C240.611 -43.0582 239.307 -44.9248 238.152 -45.2235C234.646 -46.1534 231.572 -48.3119 228.181 -49.2283C226.877 -49.588 225.134 -49.7916 225.262 -49.8392C224.884 -50.6537 224.425 -51.8755 223.81 -52.9615C223.959 -53.9186 221.148 -55.3101 219.757 -55.0997H219.446C218.99 -55.0446 218.527 -55.0981 218.095 -55.2558C216.223 -55.9889 215.818 -57.041 213.595 -56.8645C212.781 -56.788 211.983 -56.5841 211.231 -56.2604C210.662 -56.4945 210.077 -56.6895 209.481 -56.8442C207.252 -57.3872 205.387 -57.489 203.516 -58.9755C201.645 -60.462 199.746 -61.0119 200.483 -63.6116C200.588 -64.1849 200.827 -64.7251 201.179 -65.1886C201.531 -65.652 201.987 -66.0256 202.509 -66.2792C203.273 -66.6864 204.631 -66.5778 205.252 -66.9987C207.954 -68.8314 203.226 -69.5441 203.901 -71.7501C204.158 -72.5402 204.625 -73.2445 205.252 -73.7865C206.117 -74.6282 206.934 -75.3069 206.387 -77.3093C205.394 -77.3908 205.144 -76.0129 204.165 -76.1079C203.489 -76.1758 203.428 -77.384 202.976 -77.7981C202.523 -78.2121 200.354 -78.7755 196.537 -78.0831C194.024 -77.5673 188.66 -78.5854 184.614 -78.1985C181.81 -77.9338 179.77 -76.0129 179.277 -76.6306C177.804 -78.4633 177.993 -79.3457 175.717 -78.728C174.121 -78.185 172.472 -77.8163 170.798 -77.6284C168.994 -77.6077 167.21 -77.2414 165.543 -76.5491C163.718 -75.7278 162.766 -75.8228 160.847 -75.5445C158.997 -75.1638 157.259 -74.355 155.774 -73.1824C153.842 -71.8248 153.261 -72.4085 151.139 -72.0149C147.525 -71.3361 145.228 -68.3834 141.236 -68.7228C139.885 -68.845 138.696 -68.811 137.581 -68.811C135.906 -68.7515 134.232 -68.96 132.622 -69.4287C130.501 -70.1075 127.988 -72.8769 126.144 -71.18C125.67 -70.7367 125.285 -70.2069 125.009 -69.6188C123.657 -68.5191 122.624 -66.9037 120.638 -65.1185C117.665 -62.4577 114.112 -60.4892 110.808 -58.3307C103.526 -53.4638 102.452 -46.8593 97.8914 -40.0783C96.466 -37.947 92.5275 -33.4466 90.2576 -32.347C88.974 -31.7225 86.9811 -32.347 85.5286 -31.8379C83.2519 -31.0641 81.6644 -29.1703 80.1984 -27.4327C77.8407 -24.6361 74.4629 -22.8916 72.4159 -20.034C69.8555 -16.4772 67.3154 -13.7621 64.451 -10.4225C61.9671 -7.51785 59.6701 -4.45715 57.5737 -1.25896C56.6955 0.0986023 55.7362 1.72088 55.5943 3.34316C55.243 7.47693 56.986 4.70072 57.9453 7.15111C58.6884 9.05848 57.3508 10.1038 56.9995 11.3935C56.8238 12.0723 55.6484 12.3166 55.5943 13.4298C55.5403 14.543 56.9117 14.4208 56.9454 15.215C57.0873 18.7379 54.2432 21.5073 54.4661 25.098C54.4917 25.2967 54.5278 25.4938 54.5742 25.6886C54.3025 26.0542 54.0586 26.4399 53.8446 26.8425C50.9397 32.4288 51.5477 36.0331 45.5352 39.1216C47.9064 42.9906 49.8858 41.8367 48.6495 47.2669C47.3592 52.9483 49.7845 51.3396 53.0745 55.1815C54.2162 56.5391 54.4256 58.365 55.6281 59.6954C56.9204 60.9816 58.2874 62.1897 59.722 63.3133C61.3299 64.6165 61.9176 63.9921 63.1539 65.9401C63.9713 67.2434 64.0524 69.8024 65.0522 71.4315C66.4034 73.6646 65.8156 73.2302 68.0788 74.8253C69.6798 75.9725 70.7202 76.4476 72.0713 78.036C74.511 81.1235 77.5524 83.6781 81.0091 85.5433C87.2716 89.2087 91.8992 97.7613 99.6884 95.1684C106.836 92.7791 111.369 88.9711 119.145 91.7745C122.103 92.9493 125.267 93.5148 128.447 93.4375C133.305 93.4035 133.757 91.0007 137.831 89.2426C139.182 88.6385 140.878 87.9801 142.431 88.1498C143.83 88.2991 144.627 89.7653 146.059 89.2562C147.491 88.7471 147.958 85.7673 150.079 85.1835C151.558 84.7695 153.909 85.5161 155.551 85.489C159.267 85.4211 163.773 84.6405 165.157 87.6678C165.738 88.9372 166.725 89.8331 167.292 91.0617C167.968 92.5007 167.38 94.0823 169.008 95.0937C173.453 97.8699 174.413 93.7904 176.642 93.0574C177.392 92.8062 178.108 94.89 179.385 95.2362C182.567 96.0983 187.059 96.4648 188.242 98.379C189.424 100.293 193.855 102.031 193.288 104.488C192.612 107.461 189.349 109.857 188.14 112.308C189.066 112.891 190.167 112.986 190.89 113.842C190.309 114.846 189.012 114.941 188.397 115.932C187.579 117.256 188.397 118.009 188.12 119.326C187.444 122.272 183.803 122.815 186.6 125.754C187.674 126.881 187.431 129.65 188.458 130.58C189.435 131.486 190.257 132.548 190.89 133.723C192.167 136.092 194.43 136.139 195.794 138.441C198.578 143.192 203.516 147.075 205.333 152.328C205.968 154.161 209.481 160.318 210.657 164.893C211.109 166.664 208.894 166.834 209.481 168.456C211.116 172.99 213.852 175.882 213.981 176.866C214.295 179.59 214.123 182.348 213.474 185.012C212.265 187.184 209.387 188.331 208.231 190.53C206.84 193.157 204.854 195.247 204.266 198.173C203.834 200.352 204.178 202.585 204.036 204.791C202.942 205.965 202.368 207.676 202.645 210.364C202.9 213.774 204.246 217.01 206.482 219.589C205.624 221.754 208.252 223.471 209.535 225.813C210.831 228.286 212.294 230.667 213.913 232.94C214.413 233.619 215.068 234.393 215.73 235.221C215.663 236.472 215.922 237.719 216.482 238.839C217.043 239.958 217.885 240.91 218.926 241.601C218.926 243.563 217.946 245.443 218.331 247.534C218.818 250.249 220.689 252.53 221.223 255.19C222.033 259.216 221.804 267.055 225.479 269.954C226.715 270.931 227.809 270.158 229.046 270.911C230.079 271.542 230.789 273.565 231.37 274.576C232.77 277.023 233.972 279.579 234.964 282.219C235.876 284.595 236.382 287.154 237.754 289.292C238.429 290.358 239.476 291.118 239.497 292.435C239.517 293.752 238.145 294.512 238.2 296.243C238.2 298.476 240.226 301.816 241.726 303.397C244.482 306.364 245.881 304.83 248.826 303.608C251.204 302.61 253.339 303.784 255.676 303.397C258.203 302.983 260.405 301.266 263.168 301.022C265.79 300.791 268.573 300.872 271.241 300.743C272.532 300.689 273.944 300.947 275.2 300.791C276.457 300.635 276.268 301.001 277.389 300.587C277.531 300.533 278.423 299.23 278.997 298.951C280.152 298.408 281.699 298.7 283.05 298.082C284.765 297.184 286.355 296.064 287.779 294.75C290.427 292.374 293.008 289.795 295.528 287.283C300.257 282.532 305.439 277.101 309.107 271.671C310.161 270.144 311.066 269.635 311.431 267.761C311.721 266.275 311.235 264.612 311.431 263.105C311.674 261.157 311.762 260.784 313.309 259.44C314.363 258.537 316.585 257.96 317.207 256.724C317.349 256.677 317.484 256.616 317.626 256.575C320.612 255.571 326.928 252.93 328.192 249.726C327.928 249.686 327.448 249.428 327.07 249.367C327.489 247.004 329.097 245.341 329.158 242.959C329.158 241.018 328.192 239.293 327.746 237.474C328.056 236.673 327.313 232.119 326.03 230.598C325.733 229.852 325.395 229.112 325.023 228.365C324.739 226.112 327.205 225.738 328.847 224.666C330.759 223.403 331.981 221.951 334.38 221.224C337.433 220.274 336.217 219.711 338.143 217.111C340.068 214.511 342.98 215.326 345.506 214.138C347.465 213.222 349.965 211.307 351.762 210.065C353.924 208.552 353.518 206.984 355.052 204.995C356.586 203.006 358.714 202.551 359.335 199.727C359.74 197.854 359.126 195.838 359.112 193.965C359.112 191.813 359.673 189.641 359.322 187.462C359.004 185.426 358.072 184.17 358.565 182.29C359.761 181.747 361.166 181.02 361.389 180.593C362.598 178.312 357.288 175.244 356.66 173.269C355.653 170.153 354.694 168.015 354.572 164.757C354.437 161.064 356.417 159.584 353.863 157.684C350.836 155.437 352.843 154.175 353.937 151.541C354.809 149.437 354.545 147.047 354.964 144.753C355.1 144.043 355.304 143.347 355.572 142.676C357.498 141.658 358.072 139.581 358.734 137.395C360.497 134.965 362.267 132.528 364.138 130.166C366.415 128.381 368.685 126.67 370.928 124.865C373.171 123.059 374.981 120.575 377.386 118.932C382.277 115.62 386.297 110.868 391.728 108.072C396.883 105.445 398.687 98.7387 402.923 94.7C406.915 90.8988 407.942 84.8781 411.259 80.3031C414.211 76.2304 416.859 70.8002 417.265 65.6618C417.461 63.1096 417.481 60.5846 417.717 58.0392C417.913 55.3308 418.042 53.2673 414.792 53.437Z" fill="#E7AC6D"/>
</g>
<mask id="path-3-inside-1_523_92101" fill="white">
<path d="M419.688 54.2084C417.171 54.3147 413.879 56.2496 411.595 57.0434C409.17 57.9294 406.63 58.9358 404.134 59.5879C401.751 60.2045 398.46 60.2966 396.268 61.2747C394.941 61.8772 394.906 62.6923 393.487 63.1601C392.48 63.479 390.991 63.0963 389.941 63.1601C388.522 63.2239 386.948 63.7271 385.529 63.4365C383.494 63.0183 384.309 62.7773 383.089 61.5157C381.286 59.4958 378.916 58.0657 376.287 57.412C376.372 55.8598 378.458 54.0241 377.883 52.4506C377.422 51.1819 374.883 50.1542 373.776 49.4454C370.919 47.4723 368.201 45.3054 365.641 42.9602C362.924 40.6213 360.96 37.7225 358.413 35.3339C356.562 33.5974 355.115 32.4988 353.902 30.897C353.846 30.3674 353.727 29.8463 353.548 29.3448C353.051 28.1728 352.369 27.0886 351.526 26.1341C350.625 23.9015 349.668 21.8815 347.831 20.1238C347.355 19.3087 343.235 18.9118 341.355 15.7507C339.362 12.4053 339.61 6.29577 339.121 5.59409C339.121 5.38145 339.085 5.15465 339.05 4.9491C338.44 1.49741 336.759 -0.288673 334.489 -2.58508C333.411 -4.924 330.68 -4.71137 329.453 -7.07865C327.857 -10.1264 327.744 -12.6779 325.474 -14.9176C321.155 -19.1702 318.736 -25.2656 315.303 -30.0639C313.884 -32.0697 308.834 -41.8011 309.629 -42.3469C310.423 -42.8926 317.026 -34.2457 318.8 -33.2534C323.353 -30.7089 322.382 -37.024 322.346 -40.4261C322.346 -43.5376 321.275 -43.9699 319.601 -46.5215C319.119 -47.2303 318.566 -49.4487 317.778 -49.8952C316.714 -50.4977 316.119 -49.4487 314.764 -49.4487C312.111 -49.4487 310.714 -50.0795 308.671 -51.3694C304.564 -53.9564 305.373 -52.9004 302.117 -51.6317C300.372 -50.9229 298.138 -51.5325 296.294 -51.2419C294.875 -51.0222 293.393 -50.1645 291.974 -49.9803C288.967 -49.5834 285.321 -49.8598 282.3 -49.9803C277.91 -50.1845 273.565 -50.9491 269.37 -52.2554C269.423 -52.47 269.464 -52.6878 269.49 -52.9075C267.022 -53.3682 266.036 -54.8637 264.007 -55.7425C263.1 -56.1112 262.145 -56.3498 261.17 -56.4513C259.964 -57.5145 259.432 -58.5209 257.858 -58.9958C256.702 -59.3502 254.978 -59.2438 253.751 -59.4706C251.297 -59.9384 247.807 -60.7181 245.793 -58.9249C243.949 -57.2735 244.814 -55.2606 244.913 -53.0563C244.956 -52.1845 244.857 -51.249 244.857 -50.3347C244.709 -50.0567 244.536 -49.7933 244.339 -49.5479C243.169 -48.1304 240.672 -46.2592 238.487 -46.4223C236.813 -46.5498 235.444 -48.4989 234.232 -48.8108C230.55 -49.7818 227.323 -52.0357 223.762 -52.9925C222.394 -53.3682 220.564 -53.5808 220.698 -53.6304C220.301 -54.4809 219.819 -55.7567 219.173 -56.8907C219.329 -57.8901 216.379 -59.3431 214.918 -59.1234H214.591C214.112 -59.0658 213.626 -59.1217 213.173 -59.2864C211.208 -60.0518 210.783 -61.1504 208.449 -60.9661C207.594 -60.8862 206.756 -60.6734 205.967 -60.3353C205.369 -60.5798 204.755 -60.7834 204.129 -60.9449C201.789 -61.5119 199.831 -61.6182 197.866 -63.1704C195.902 -64.7226 193.909 -65.2967 194.682 -68.0113C194.793 -68.6099 195.043 -69.174 195.413 -69.6579C195.782 -70.1419 196.261 -70.532 196.81 -70.7967C197.611 -71.222 199.037 -71.1086 199.689 -71.548C202.526 -73.4617 197.561 -74.2059 198.271 -76.5094C198.54 -77.3344 199.031 -78.0698 199.689 -78.6357C200.597 -79.5146 201.455 -80.2233 200.881 -82.3142C199.838 -82.3992 199.576 -80.9604 198.547 -81.0597C197.838 -81.1305 197.774 -82.3921 197.299 -82.8245C196.824 -83.2568 194.547 -83.8451 190.54 -83.1222C187.901 -82.5835 182.269 -83.6467 178.021 -83.2427C175.077 -82.9662 172.935 -80.9604 172.417 -81.6054C170.871 -83.5191 171.07 -84.4405 168.679 -83.7955C167.004 -83.2285 165.273 -82.8435 163.516 -82.6473C161.621 -82.6258 159.748 -82.2433 157.998 -81.5204C156.082 -80.6628 155.082 -80.762 153.068 -80.4714C151.125 -80.0739 149.301 -79.2294 147.741 -78.0049C145.713 -76.5873 145.103 -77.1969 142.876 -76.7858C139.081 -76.077 136.669 -72.9939 132.477 -73.3483C131.059 -73.4759 129.81 -73.4404 128.64 -73.4404C126.882 -73.3783 125.124 -73.596 123.434 -74.0854C121.207 -74.7942 118.568 -77.6859 116.632 -75.914C116.135 -75.4512 115.73 -74.898 115.44 -74.2839C114.022 -73.1357 112.937 -71.4488 110.851 -69.5847C107.73 -66.8064 104 -64.751 100.531 -62.4971C92.8851 -57.4152 91.7573 -50.5189 86.9696 -43.4384C85.473 -41.2128 81.3379 -36.5137 78.9547 -35.3655C77.6071 -34.7134 75.5147 -35.3655 73.9897 -34.8339C71.5994 -34.0259 69.9326 -32.0485 68.3934 -30.234C65.918 -27.3139 62.3716 -25.4924 60.2225 -22.5085C57.5343 -18.7946 54.8674 -15.9595 51.86 -12.4724C49.2522 -9.43943 46.8405 -6.24351 44.6395 -2.90402C43.7174 -1.48649 42.7102 0.207458 42.5613 1.90141C42.1924 6.2178 44.0224 3.31895 45.0296 5.87759C45.8098 7.86922 44.4054 8.96072 44.0366 10.3074C43.8522 11.0161 42.618 11.2713 42.5613 12.4337C42.5045 13.5961 43.9444 13.4685 43.9798 14.2977C44.1288 17.9762 41.1427 20.868 41.3768 24.6174C41.4036 24.8248 41.4415 25.0306 41.4902 25.234C41.2049 25.6158 40.9489 26.0186 40.7242 26.4389C37.6743 32.272 38.3126 36.0356 32 39.2605C34.4896 43.3004 36.5678 42.0955 35.2698 47.7657C33.9151 53.698 36.4614 52.0183 39.9156 56.0299C41.1143 57.4474 41.3342 59.354 42.5967 60.7432C43.9535 62.0862 45.3888 63.3477 46.895 64.5209C48.5831 65.8817 49.2002 65.2297 50.4982 67.2638C51.3564 68.6246 51.4415 71.2967 52.4913 72.9977C53.9098 75.3296 53.2928 74.876 55.6689 76.5416C57.3499 77.7394 58.4422 78.2355 59.8607 79.894C62.4222 83.118 65.6154 85.7854 69.2446 87.733C75.8197 91.5603 80.6783 100.491 88.8563 97.7833C96.3606 95.2884 101.12 91.3123 109.284 94.2395C112.39 95.4662 115.711 96.0567 119.051 95.9759C124.15 95.9405 124.626 93.4315 128.903 91.5958C130.321 90.965 132.101 90.2775 133.733 90.4547C135.201 90.6106 136.038 92.1415 137.542 91.6099C139.045 91.0784 139.535 87.9669 141.762 87.3573C143.315 86.925 145.784 87.7046 147.507 87.6763C151.408 87.6054 156.139 86.7903 157.593 89.9514C158.203 91.2768 159.239 92.2124 159.835 93.4953C160.544 94.9978 159.927 96.6493 161.636 97.7053C166.303 100.604 167.31 96.3445 169.651 95.579C170.438 95.3168 171.19 97.4927 172.531 97.8542C175.872 98.7543 180.588 99.137 181.83 101.136C183.071 103.134 187.724 104.949 187.128 107.515C186.419 110.619 182.993 113.121 181.723 115.68C182.695 116.289 183.851 116.388 184.61 117.281C184 118.33 182.638 118.43 181.993 119.464C181.134 120.847 181.993 121.633 181.702 123.008C180.993 126.084 177.169 126.651 180.106 129.72C181.234 130.897 180.978 133.789 182.056 134.76C183.083 135.705 183.946 136.814 184.61 138.041C185.95 140.515 188.327 140.564 189.759 142.967C192.682 147.928 197.866 151.983 199.774 157.468C200.441 159.382 204.129 165.811 205.364 170.588C205.839 172.438 203.512 172.615 204.129 174.309C205.846 179.043 208.719 182.063 208.853 183.09C209.183 185.935 209.003 188.815 208.321 191.596C207.052 193.864 204.03 195.061 202.817 197.358C201.356 200.101 199.271 202.284 198.654 205.339C198.2 207.614 198.562 209.946 198.413 212.249C197.264 213.475 196.661 215.261 196.951 218.068C197.219 221.629 198.633 225.008 200.98 227.7C200.079 229.961 202.839 231.754 204.186 234.2C205.547 236.782 207.082 239.268 208.782 241.642C209.307 242.35 209.995 243.158 210.69 244.023C210.619 245.329 210.892 246.632 211.48 247.801C212.069 248.969 212.953 249.964 214.045 250.685C214.045 252.734 213.017 254.697 213.421 256.88C213.932 259.715 215.896 262.097 216.457 264.875C217.308 269.078 217.067 277.264 220.925 280.291C222.223 281.311 223.372 280.503 224.67 281.29C225.756 281.949 226.5 284.061 227.11 285.117C228.581 287.672 229.843 290.341 230.884 293.098C231.841 295.579 232.373 298.251 233.813 300.483C234.522 301.596 235.622 302.39 235.643 303.765C235.664 305.14 234.224 305.934 234.281 307.741C234.281 310.073 236.409 313.56 237.984 315.211C240.878 318.309 242.346 316.707 245.438 315.431C247.935 314.389 250.176 315.615 252.63 315.211C255.283 314.779 257.595 312.986 260.496 312.731C263.248 312.49 266.171 312.575 268.972 312.44C270.327 312.384 271.809 312.653 273.129 312.49C274.448 312.327 274.249 312.71 275.427 312.277C275.576 312.22 276.512 310.86 277.115 310.569C278.328 310.002 279.952 310.307 281.371 309.662C283.171 308.724 284.84 307.554 286.336 306.182C289.116 303.701 291.826 301.008 294.471 298.385C299.436 293.424 304.876 287.754 308.728 282.084C309.834 280.489 310.785 279.957 311.168 278.001C311.473 276.449 310.962 274.713 311.168 273.139C311.423 271.105 311.515 270.715 313.14 269.312C314.246 268.369 316.58 267.767 317.232 266.477C317.381 266.427 317.523 266.363 317.672 266.321C320.807 265.272 327.439 262.515 328.765 259.169C328.488 259.127 327.985 258.857 327.588 258.794C328.027 256.327 329.716 254.591 329.779 252.103C329.779 250.076 328.765 248.276 328.297 246.376C328.623 245.54 327.843 240.784 326.495 239.196C326.183 238.417 325.829 237.644 325.439 236.864C325.141 234.511 327.73 234.122 329.453 233.002C331.46 231.683 332.744 230.167 335.262 229.408C338.468 228.416 337.191 227.828 339.213 225.113C341.234 222.399 344.291 223.249 346.944 222.009C349.001 221.052 351.625 219.053 353.512 217.756C355.782 216.176 355.356 214.538 356.966 212.462C358.576 210.385 360.811 209.91 361.463 206.962C361.889 205.005 361.243 202.9 361.229 200.944C361.229 198.697 361.818 196.429 361.449 194.154C361.116 192.028 360.137 190.717 360.655 188.753C361.91 188.186 363.385 187.428 363.619 186.982C364.889 184.6 359.314 181.396 358.654 179.334C357.598 176.081 356.59 173.848 356.463 170.446C356.321 166.59 358.399 165.045 355.718 163.061C352.54 160.715 354.647 159.396 355.796 156.646C356.711 154.449 356.434 151.954 356.874 149.559C357.017 148.817 357.231 148.091 357.512 147.39C359.534 146.327 360.137 144.158 360.832 141.876C362.683 139.338 364.541 136.794 366.506 134.327C368.897 132.463 371.28 130.677 373.635 128.792C375.989 126.906 377.89 124.312 380.415 122.597C385.551 119.138 389.771 114.177 395.473 111.257C400.885 108.514 402.779 101.511 407.226 97.2942C411.418 93.3251 412.496 87.0384 415.979 82.2613C419.078 78.0087 421.859 72.3386 422.284 66.9732C422.49 64.3083 422.511 61.6717 422.76 59.0138C422.965 56.1858 423.1 54.0312 419.688 54.2084Z"/>
</mask>
<path d="M419.688 54.2084C417.171 54.3147 413.879 56.2496 411.595 57.0434C409.17 57.9294 406.63 58.9358 404.134 59.5879C401.751 60.2045 398.46 60.2966 396.268 61.2747C394.941 61.8772 394.906 62.6923 393.487 63.1601C392.48 63.479 390.991 63.0963 389.941 63.1601C388.522 63.2239 386.948 63.7271 385.529 63.4365C383.494 63.0183 384.309 62.7773 383.089 61.5157C381.286 59.4958 378.916 58.0657 376.287 57.412C376.372 55.8598 378.458 54.0241 377.883 52.4506C377.422 51.1819 374.883 50.1542 373.776 49.4454C370.919 47.4723 368.201 45.3054 365.641 42.9602C362.924 40.6213 360.96 37.7225 358.413 35.3339C356.562 33.5974 355.115 32.4988 353.902 30.897C353.846 30.3674 353.727 29.8463 353.548 29.3448C353.051 28.1728 352.369 27.0886 351.526 26.1341C350.625 23.9015 349.668 21.8815 347.831 20.1238C347.355 19.3087 343.235 18.9118 341.355 15.7507C339.362 12.4053 339.61 6.29577 339.121 5.59409C339.121 5.38145 339.085 5.15465 339.05 4.9491C338.44 1.49741 336.759 -0.288673 334.489 -2.58508C333.411 -4.924 330.68 -4.71137 329.453 -7.07865C327.857 -10.1264 327.744 -12.6779 325.474 -14.9176C321.155 -19.1702 318.736 -25.2656 315.303 -30.0639C313.884 -32.0697 308.834 -41.8011 309.629 -42.3469C310.423 -42.8926 317.026 -34.2457 318.8 -33.2534C323.353 -30.7089 322.382 -37.024 322.346 -40.4261C322.346 -43.5376 321.275 -43.9699 319.601 -46.5215C319.119 -47.2303 318.566 -49.4487 317.778 -49.8952C316.714 -50.4977 316.119 -49.4487 314.764 -49.4487C312.111 -49.4487 310.714 -50.0795 308.671 -51.3694C304.564 -53.9564 305.373 -52.9004 302.117 -51.6317C300.372 -50.9229 298.138 -51.5325 296.294 -51.2419C294.875 -51.0222 293.393 -50.1645 291.974 -49.9803C288.967 -49.5834 285.321 -49.8598 282.3 -49.9803C277.91 -50.1845 273.565 -50.9491 269.37 -52.2554C269.423 -52.47 269.464 -52.6878 269.49 -52.9075C267.022 -53.3682 266.036 -54.8637 264.007 -55.7425C263.1 -56.1112 262.145 -56.3498 261.17 -56.4513C259.964 -57.5145 259.432 -58.5209 257.858 -58.9958C256.702 -59.3502 254.978 -59.2438 253.751 -59.4706C251.297 -59.9384 247.807 -60.7181 245.793 -58.9249C243.949 -57.2735 244.814 -55.2606 244.913 -53.0563C244.956 -52.1845 244.857 -51.249 244.857 -50.3347C244.709 -50.0567 244.536 -49.7933 244.339 -49.5479C243.169 -48.1304 240.672 -46.2592 238.487 -46.4223C236.813 -46.5498 235.444 -48.4989 234.232 -48.8108C230.55 -49.7818 227.323 -52.0357 223.762 -52.9925C222.394 -53.3682 220.564 -53.5808 220.698 -53.6304C220.301 -54.4809 219.819 -55.7567 219.173 -56.8907C219.329 -57.8901 216.379 -59.3431 214.918 -59.1234H214.591C214.112 -59.0658 213.626 -59.1217 213.173 -59.2864C211.208 -60.0518 210.783 -61.1504 208.449 -60.9661C207.594 -60.8862 206.756 -60.6734 205.967 -60.3353C205.369 -60.5798 204.755 -60.7834 204.129 -60.9449C201.789 -61.5119 199.831 -61.6182 197.866 -63.1704C195.902 -64.7226 193.909 -65.2967 194.682 -68.0113C194.793 -68.6099 195.043 -69.174 195.413 -69.6579C195.782 -70.1419 196.261 -70.532 196.81 -70.7967C197.611 -71.222 199.037 -71.1086 199.689 -71.548C202.526 -73.4617 197.561 -74.2059 198.271 -76.5094C198.54 -77.3344 199.031 -78.0698 199.689 -78.6357C200.597 -79.5146 201.455 -80.2233 200.881 -82.3142C199.838 -82.3992 199.576 -80.9604 198.547 -81.0597C197.838 -81.1305 197.774 -82.3921 197.299 -82.8245C196.824 -83.2568 194.547 -83.8451 190.54 -83.1222C187.901 -82.5835 182.269 -83.6467 178.021 -83.2427C175.077 -82.9662 172.935 -80.9604 172.417 -81.6054C170.871 -83.5191 171.07 -84.4405 168.679 -83.7955C167.004 -83.2285 165.273 -82.8435 163.516 -82.6473C161.621 -82.6258 159.748 -82.2433 157.998 -81.5204C156.082 -80.6628 155.082 -80.762 153.068 -80.4714C151.125 -80.0739 149.301 -79.2294 147.741 -78.0049C145.713 -76.5873 145.103 -77.1969 142.876 -76.7858C139.081 -76.077 136.669 -72.9939 132.477 -73.3483C131.059 -73.4759 129.81 -73.4404 128.64 -73.4404C126.882 -73.3783 125.124 -73.596 123.434 -74.0854C121.207 -74.7942 118.568 -77.6859 116.632 -75.914C116.135 -75.4512 115.73 -74.898 115.44 -74.2839C114.022 -73.1357 112.937 -71.4488 110.851 -69.5847C107.73 -66.8064 104 -64.751 100.531 -62.4971C92.8851 -57.4152 91.7573 -50.5189 86.9696 -43.4384C85.473 -41.2128 81.3379 -36.5137 78.9547 -35.3655C77.6071 -34.7134 75.5147 -35.3655 73.9897 -34.8339C71.5994 -34.0259 69.9326 -32.0485 68.3934 -30.234C65.918 -27.3139 62.3716 -25.4924 60.2225 -22.5085C57.5343 -18.7946 54.8674 -15.9595 51.86 -12.4724C49.2522 -9.43943 46.8405 -6.24351 44.6395 -2.90402C43.7174 -1.48649 42.7102 0.207458 42.5613 1.90141C42.1924 6.2178 44.0224 3.31895 45.0296 5.87759C45.8098 7.86922 44.4054 8.96072 44.0366 10.3074C43.8522 11.0161 42.618 11.2713 42.5613 12.4337C42.5045 13.5961 43.9444 13.4685 43.9798 14.2977C44.1288 17.9762 41.1427 20.868 41.3768 24.6174C41.4036 24.8248 41.4415 25.0306 41.4902 25.234C41.2049 25.6158 40.9489 26.0186 40.7242 26.4389C37.6743 32.272 38.3126 36.0356 32 39.2605C34.4896 43.3004 36.5678 42.0955 35.2698 47.7657C33.9151 53.698 36.4614 52.0183 39.9156 56.0299C41.1143 57.4474 41.3342 59.354 42.5967 60.7432C43.9535 62.0862 45.3888 63.3477 46.895 64.5209C48.5831 65.8817 49.2002 65.2297 50.4982 67.2638C51.3564 68.6246 51.4415 71.2967 52.4913 72.9977C53.9098 75.3296 53.2928 74.876 55.6689 76.5416C57.3499 77.7394 58.4422 78.2355 59.8607 79.894C62.4222 83.118 65.6154 85.7854 69.2446 87.733C75.8197 91.5603 80.6783 100.491 88.8563 97.7833C96.3606 95.2884 101.12 91.3123 109.284 94.2395C112.39 95.4662 115.711 96.0567 119.051 95.9759C124.15 95.9405 124.626 93.4315 128.903 91.5958C130.321 90.965 132.101 90.2775 133.733 90.4547C135.201 90.6106 136.038 92.1415 137.542 91.6099C139.045 91.0784 139.535 87.9669 141.762 87.3573C143.315 86.925 145.784 87.7046 147.507 87.6763C151.408 87.6054 156.139 86.7903 157.593 89.9514C158.203 91.2768 159.239 92.2124 159.835 93.4953C160.544 94.9978 159.927 96.6493 161.636 97.7053C166.303 100.604 167.31 96.3445 169.651 95.579C170.438 95.3168 171.19 97.4927 172.531 97.8542C175.872 98.7543 180.588 99.137 181.83 101.136C183.071 103.134 187.724 104.949 187.128 107.515C186.419 110.619 182.993 113.121 181.723 115.68C182.695 116.289 183.851 116.388 184.61 117.281C184 118.33 182.638 118.43 181.993 119.464C181.134 120.847 181.993 121.633 181.702 123.008C180.993 126.084 177.169 126.651 180.106 129.72C181.234 130.897 180.978 133.789 182.056 134.76C183.083 135.705 183.946 136.814 184.61 138.041C185.95 140.515 188.327 140.564 189.759 142.967C192.682 147.928 197.866 151.983 199.774 157.468C200.441 159.382 204.129 165.811 205.364 170.588C205.839 172.438 203.512 172.615 204.129 174.309C205.846 179.043 208.719 182.063 208.853 183.09C209.183 185.935 209.003 188.815 208.321 191.596C207.052 193.864 204.03 195.061 202.817 197.358C201.356 200.101 199.271 202.284 198.654 205.339C198.2 207.614 198.562 209.946 198.413 212.249C197.264 213.475 196.661 215.261 196.951 218.068C197.219 221.629 198.633 225.008 200.98 227.7C200.079 229.961 202.839 231.754 204.186 234.2C205.547 236.782 207.082 239.268 208.782 241.642C209.307 242.35 209.995 243.158 210.69 244.023C210.619 245.329 210.892 246.632 211.48 247.801C212.069 248.969 212.953 249.964 214.045 250.685C214.045 252.734 213.017 254.697 213.421 256.88C213.932 259.715 215.896 262.097 216.457 264.875C217.308 269.078 217.067 277.264 220.925 280.291C222.223 281.311 223.372 280.503 224.67 281.29C225.756 281.949 226.5 284.061 227.11 285.117C228.581 287.672 229.843 290.341 230.884 293.098C231.841 295.579 232.373 298.251 233.813 300.483C234.522 301.596 235.622 302.39 235.643 303.765C235.664 305.14 234.224 305.934 234.281 307.741C234.281 310.073 236.409 313.56 237.984 315.211C240.878 318.309 242.346 316.707 245.438 315.431C247.935 314.389 250.176 315.615 252.63 315.211C255.283 314.779 257.595 312.986 260.496 312.731C263.248 312.49 266.171 312.575 268.972 312.44C270.327 312.384 271.809 312.653 273.129 312.49C274.448 312.327 274.249 312.71 275.427 312.277C275.576 312.22 276.512 310.86 277.115 310.569C278.328 310.002 279.952 310.307 281.371 309.662C283.171 308.724 284.84 307.554 286.336 306.182C289.116 303.701 291.826 301.008 294.471 298.385C299.436 293.424 304.876 287.754 308.728 282.084C309.834 280.489 310.785 279.957 311.168 278.001C311.473 276.449 310.962 274.713 311.168 273.139C311.423 271.105 311.515 270.715 313.14 269.312C314.246 268.369 316.58 267.767 317.232 266.477C317.381 266.427 317.523 266.363 317.672 266.321C320.807 265.272 327.439 262.515 328.765 259.169C328.488 259.127 327.985 258.857 327.588 258.794C328.027 256.327 329.716 254.591 329.779 252.103C329.779 250.076 328.765 248.276 328.297 246.376C328.623 245.54 327.843 240.784 326.495 239.196C326.183 238.417 325.829 237.644 325.439 236.864C325.141 234.511 327.73 234.122 329.453 233.002C331.46 231.683 332.744 230.167 335.262 229.408C338.468 228.416 337.191 227.828 339.213 225.113C341.234 222.399 344.291 223.249 346.944 222.009C349.001 221.052 351.625 219.053 353.512 217.756C355.782 216.176 355.356 214.538 356.966 212.462C358.576 210.385 360.811 209.91 361.463 206.962C361.889 205.005 361.243 202.9 361.229 200.944C361.229 198.697 361.818 196.429 361.449 194.154C361.116 192.028 360.137 190.717 360.655 188.753C361.91 188.186 363.385 187.428 363.619 186.982C364.889 184.6 359.314 181.396 358.654 179.334C357.598 176.081 356.59 173.848 356.463 170.446C356.321 166.59 358.399 165.045 355.718 163.061C352.54 160.715 354.647 159.396 355.796 156.646C356.711 154.449 356.434 151.954 356.874 149.559C357.017 148.817 357.231 148.091 357.512 147.39C359.534 146.327 360.137 144.158 360.832 141.876C362.683 139.338 364.541 136.794 366.506 134.327C368.897 132.463 371.28 130.677 373.635 128.792C375.989 126.906 377.89 124.312 380.415 122.597C385.551 119.138 389.771 114.177 395.473 111.257C400.885 108.514 402.779 101.511 407.226 97.2942C411.418 93.3251 412.496 87.0384 415.979 82.2613C419.078 78.0087 421.859 72.3386 422.284 66.9732C422.49 64.3083 422.511 61.6717 422.76 59.0138C422.965 56.1858 423.1 54.0312 419.688 54.2084Z" stroke="#B98551" stroke-width="3.38397" mask="url(#path-3-inside-1_523_92101)"/>
</g>
<defs>
<clipPath id="clip0_523_92101">
<rect width="372.236" height="384.08" fill="white" transform="translate(45.5352 -78.9243)"/>
</clipPath>
</defs>
</svg>
