<svg width="1512" height="235" viewBox="0 0 1512 235" fill="none" xmlns="http://www.w3.org/2000/svg">
<mask id="mask0_2862_7243" style="mask-type:alpha" maskUnits="userSpaceOnUse" x="0" y="0" width="1512" height="235">
<rect width="1512" height="235" fill="#D9D9D9"/>
</mask>
<g mask="url(#mask0_2862_7243)">
<mask id="mask1_2862_7243" style="mask-type:alpha" maskUnits="userSpaceOnUse" x="0" y="0" width="1512" height="247">
<rect width="1512" height="247" fill="#D9D9D9"/>
</mask>
<g mask="url(#mask1_2862_7243)">
</g>
<g clip-path="url(#clip0_2862_7243)">
<mask id="mask2_2862_7243" style="mask-type:luminance" maskUnits="userSpaceOnUse" x="-32" y="-147" width="1713" height="532">
<path d="M1680.32 59.7933L9.03064 -146.418L-31.0029 178.042L1640.29 384.254L1680.32 59.7933Z" fill="white"/>
</mask>
<g mask="url(#mask2_2862_7243)">
<path d="M855.622 105.116L755.42 134.478L730.899 143.682L714.126 163.015L672.315 181.237L654.65 254.415L1078.05 306.657L1081.15 281.5L1067.02 206.557L1075.17 140.478L1068.01 90.6745L1043.59 65.5401C1043.59 65.5401 1029.77 50.7057 1025.45 47.8346C1021.13 44.9635 1012.6 52.9034 1004.59 52.2744C1001.06 51.9976 988.615 59.8413 978.011 63.5628C964.471 68.3158 952.671 69.2494 952.671 69.2494L933.231 83.9362C933.231 83.9362 922.191 74.3017 916.717 72.0073C911.249 69.7137 855.622 105.116 855.622 105.116Z" fill="url(#paint0_linear_2862_7243)"/>
<path d="M1160.48 44.0698L1216 31.2133L1238.06 39.0906L1259.05 56.2313L1308.59 62.344L1378.34 56.3982L1451.15 44.5359L1474.92 53.2974L1532.77 70.2979L1586.53 61.2393L1622.53 65.6817L1678.44 60.4758L1647.98 307.35L1194.94 251.452L1183.08 249.988L846.09 208.409C849.484 206.163 856.377 200.776 856.819 197.192L858.494 183.618L860.253 169.365C865.356 165.401 877.119 155.956 883.336 149.888C889.547 143.819 903.032 135.253 902.901 129.54L938.133 115.168L975.157 113.811L1011.54 84.1237L1043.34 69.7182L1066 52.1188C1066 52.1188 1105.56 28.729 1112.23 31.5017C1117.67 33.7604 1124.18 39.5904 1124.18 39.5904L1160.48 44.0698Z" fill="url(#paint1_linear_2862_7243)"/>
<path d="M386.545 52.2057L369.434 50.0945L321.188 59.7223L254.501 35.9135L204.774 45.3586L108.784 64.6265L50.5765 57.4447L-8.58323 3.45292L-30.138 178.149L322.274 221.631L327.538 222.281L812.134 282.072C796.882 259.965 770.07 185.883 770.59 181.667C771.24 176.397 762.531 165.23 758.309 162.034C754.933 159.478 733.335 146.55 722.959 140.406L660.62 132.715L624.266 114.246L581.578 76.2698L545.354 61.7083L528.066 50.2128L515.339 29.3091L509.571 21.9093L500.358 20.7726L493.111 14.5284L475.973 24.4519L459.596 33.1312L428.993 37.9887C425.436 39.5759 417.86 43.3511 416.009 45.7491C414.159 48.1472 405.646 52.2929 401.621 54.0659L386.545 52.2057Z" fill="url(#paint2_linear_2862_7243)"/>
<path d="M463.878 207.564L435.923 187.272L373.97 179.628L316.309 189.356C300.726 193.948 266.101 202.706 252.269 200.999C238.438 199.293 190.267 180.319 167.91 171.046L67.9212 158.709C40.2585 155.296 -6.45602 127.68 -26.3554 114.298L-64.3217 422.005L399.893 479.282L1143.33 571.011L1615.04 629.212L1674.48 147.42L1639.38 154.498C1627.47 162.487 1601.13 180.437 1591.03 188.318C1580.94 196.199 1564.35 188.829 1557.32 184.158L1533.69 202.598L1473.47 195.167L1447.82 170.648L1407.19 165.635L1370.88 182.51L1310.89 185.054L1289.62 172.484L1236.55 175.882L1212.86 182.906L1177.71 178.568L1136.97 196.443L1074.98 200.746L1044.26 196.956L966.718 218.538L952.752 221.523L910.877 205.309L894.274 203.261L864.001 210.572L844.354 208.148L831.975 211.51C826.655 207.111 814.384 197.17 807.839 192.596C801.295 188.022 797.271 181.755 796.077 179.193L776.431 176.769L768.277 170.872L756.491 169.418C749.277 172.03 731.882 178.153 719.976 181.755C708.075 185.357 683.646 186.75 672.915 186.995L651.623 197.95L590.392 216.654L544.775 217.545L496.023 211.53L463.878 207.564Z" fill="#FFF7ED"/>
</g>
</g>
</g>
<defs>
<linearGradient id="paint0_linear_2862_7243" x1="914.827" y1="92.3058" x2="922.159" y2="196.477" gradientUnits="userSpaceOnUse">
<stop stop-color="#FFD5AE"/>
<stop offset="1" stop-color="#FFF8F2"/>
</linearGradient>
<linearGradient id="paint1_linear_2862_7243" x1="1073.43" y1="55.9735" x2="1064.61" y2="154.4" gradientUnits="userSpaceOnUse">
<stop stop-color="#FFD3AB"/>
<stop offset="1" stop-color="#FFE8D3"/>
</linearGradient>
<linearGradient id="paint2_linear_2862_7243" x1="588.856" y1="76.3663" x2="570.059" y2="211.833" gradientUnits="userSpaceOnUse">
<stop stop-color="#FFD6B0"/>
<stop offset="1" stop-color="#FFECDA"/>
</linearGradient>
<clipPath id="clip0_2862_7243">
<rect width="1683.96" height="326.921" fill="white" transform="translate(9.03101 -146.418) rotate(7.03388)"/>
</clipPath>
</defs>
</svg>
