<svg width="232" height="54" viewBox="0 0 232 54" fill="none" xmlns="http://www.w3.org/2000/svg">
<path d="M27.3796 7.49007C27.1064 7.30947 26.4417 7.20627 26.1428 7.61906H24.7566C25.7512 5.73054 27.2713 6.28781 28.5287 6.55096C29.2038 6.67996 30.0592 6.61288 30.6621 6.4942L30.3787 7.55199C30.3787 7.55199 26.5602 7.88738 26.318 10.4261C26.2098 11.3755 26.8643 12.4075 28.0855 12.4075C28.5699 12.4075 29.0955 12.263 29.4614 11.7521H31.1671C30.7136 12.9544 29.5902 13.9503 28.0598 13.9503C25.9367 13.9503 24.5608 12.2991 24.7515 10.3125C24.8906 8.66136 26.6272 7.68614 27.3744 7.48491M27.8846 10.715H29.5078V9.34763H27.8846V10.715Z" fill="#E7AC6D"/>
<path d="M35.0167 11.912C33.0224 11.912 32.8833 10.204 32.8833 9.52292V4.21338H34.4756V9.62096C34.4756 10.0854 34.7384 10.333 35.1507 10.333H36.171V11.912H35.0218H35.0167Z" fill="#E7AC6D"/>
<path d="M38.2219 10.333H36.0627V11.9119H38.2219V10.333Z" fill="#E7AC6D"/>
<path d="M40.2727 10.333H38.1135V11.9119H40.2727V10.333Z" fill="#E7AC6D"/>
<path d="M42.3237 10.333H40.1646V11.9119H42.3237V10.333Z" fill="#E7AC6D"/>
<path d="M42.8803 8.95556C42.9164 7.12379 44.4829 6.31885 45.9052 6.31885C48.0644 6.31885 49.904 8.0629 49.904 10.3333H51.6458V11.9122H42.2156V10.3333H48.2911C48.3014 8.86268 47.3893 7.74298 45.9052 7.74298C45.1116 7.74298 44.4572 8.07321 44.385 8.95556H42.8803ZM46.8173 13.9555H45.2044V12.5881H46.8173V13.9555Z" fill="#E7AC6D"/>
<path d="M52.2177 8.95019C52.2538 7.12358 53.8204 6.31348 55.2426 6.31348C57.4018 6.31348 59.2414 8.06268 59.2414 10.3279V11.9068H51.5994V10.3279H57.6285C57.6388 8.85731 56.7267 7.73761 55.2426 7.73761C54.449 7.73761 53.7946 8.073 53.7224 8.95019H52.2177Z" fill="#E7AC6D"/>
<path d="M70.2019 8.01622C69.7484 8.01622 69.5835 8.46513 70.1658 8.81085C71.3407 9.51259 72.4538 9.99763 72.4435 11.3753C72.4332 13.0987 70.913 13.9656 69.6453 13.9656H66.1361C63.1473 13.9656 62.3176 11.0296 63.575 9.14108L64.8066 9.99763C64.214 10.72 64.3222 12.3712 66.0536 12.3712H69.5423C70.1813 12.3712 70.8357 12.0977 70.8099 11.3753C70.7842 10.7923 70.2276 10.5188 69.1146 9.78091C67.8108 8.91405 68.1303 6.62305 70.2792 6.62305H74.4686V9.61579C74.4686 10.0802 74.7314 10.3279 75.1437 10.3279H76.164V11.9068H75.0149C73.0206 11.9068 72.866 10.1937 72.866 9.51775V8.01106H70.207L70.2019 8.01622ZM67.4707 14.6312H65.8475V15.9986H67.4707V14.6312ZM69.8205 14.6312H68.1973V15.9986H69.8205V14.6312Z" fill="#E7AC6D"/>
<path d="M79.8229 9.02262C79.457 9.46121 78.9674 9.65213 78.3542 9.65213C77.5349 9.65213 76.5764 9.06906 76.6073 8.02676C76.6795 5.90087 78.8386 6.07631 81.4358 6.07631L81.4255 9.52313C81.4255 10.1991 81.2709 11.9122 79.2766 11.9122H76.0972V10.3332H79.1478C79.5652 10.3332 79.8229 10.0856 79.8229 9.62117V9.02778V9.02262ZM78.1378 7.82036C78.1378 8.25895 78.4676 8.57887 78.9211 8.57887C79.7971 8.57887 79.8332 7.60364 79.8332 6.97413C79.2766 6.96381 78.1378 6.94834 78.1378 7.8152M80.1681 5.02369H78.5449V3.646H80.1681V5.02369Z" fill="#E7AC6D"/>
<path d="M84.1772 12.3973C84.4503 12.4798 84.8317 12.5624 85.2078 12.5624C85.4552 12.5624 86.3364 12.5727 86.6198 11.9071H85.7283C84.1412 11.9071 82.9302 10.7203 82.9302 9.19812C82.9302 7.67594 84.0226 6.61816 85.7283 6.61816H88.3049V10.323H90.0363V11.9019H88.2688C88.0524 13.5066 86.558 13.971 85.4191 13.9349C85.1357 13.9246 84.8008 13.8627 84.5895 13.8059L84.1721 12.3921L84.1772 12.3973ZM86.6919 8.04746H85.6819C84.9811 8.04746 84.5792 8.65117 84.5792 9.19812C84.5792 9.79151 84.9811 10.3281 85.6819 10.3281H86.6919V8.04746Z" fill="#E7AC6D"/>
<path d="M98.982 10.3433H100.842V11.912H89.928V10.333H91.4224V4.21338H93.025L92.891 7.91819C93.7928 6.82429 95.2151 6.47858 95.9623 6.47858C97.436 6.47858 99.2139 7.40736 99.2139 9.25977C99.2139 9.66224 99.1211 10.0183 98.9871 10.3433H98.9768H98.982ZM96.3384 10.333C96.9774 10.333 97.57 9.86864 97.57 9.28557C97.57 8.30002 96.56 8.01623 96.0653 7.98011C94.2617 7.85111 93.1332 9.3578 92.9219 10.333H96.3384Z" fill="#E7AC6D"/>
<path d="M100.786 11.9121V10.3331H102.125C102.553 10.3331 102.801 10.0597 102.801 9.59528V9.04833C102.801 7.68096 103.738 6.2207 105.563 6.2207C107.387 6.2207 108.376 7.68096 108.376 9.04833C108.376 10.4157 107.392 12.0411 105.563 12.0411C104.65 12.0411 104.032 11.6592 103.604 11.2826C103.388 11.556 102.904 11.9121 102.192 11.9121H100.781H100.786ZM105.568 7.51584C104.738 7.51584 104.439 8.28982 104.439 9.04833C104.439 9.8894 104.738 10.6737 105.568 10.6737C106.397 10.6737 106.732 9.99775 106.732 9.04833C106.732 8.20211 106.433 7.51584 105.568 7.51584Z" fill="#E7AC6D"/>
<path d="M117.667 11.9121C116.529 11.9121 115.998 11.3548 115.745 10.746C115.498 11.0298 114.988 11.4374 114.189 11.3858C113.06 11.329 112.159 10.328 112.148 9.28056C112.112 7.40236 113.55 6.73673 115.529 6.72641V6.32394L117.131 5.93179V9.61596C117.131 10.0803 117.394 10.328 117.806 10.328H118.816V11.907H117.667V11.9121ZM114.179 5.45191H112.566V4.07422H114.179V5.45191ZM115.529 7.72227C114.709 7.72227 113.715 8.06799 113.679 9.17221C113.669 9.57468 113.89 10.2558 114.57 10.2661C115.091 10.2764 115.529 9.89975 115.529 9.13609V7.72227ZM116.523 5.45191H114.91V4.07422H116.523V5.45191Z" fill="#E7AC6D"/>
<path d="M128.272 9.21354C128.272 10.7202 127.087 11.9122 125.474 11.9122H118.77V10.3332H125.474C126.077 10.3332 126.623 9.83273 126.623 9.2187C126.623 8.60467 126.185 8.06804 125.474 8.06804H119.945C119.945 5.65836 121.584 4.21875 123.562 4.21875H125.448V5.75124H123.681C122.743 5.75124 122.243 6.09696 121.996 6.48911H125.469C127.19 6.48911 128.267 7.72233 128.267 9.2187" fill="#E7AC6D"/>
<path d="M130.385 13.9401C129.648 13.8834 129.066 13.6099 129.066 13.6099L128.808 12.289C128.808 12.289 129.483 12.5624 130.174 12.5624C130.746 12.5624 131.632 12.2064 131.642 11.0764V6.98975H133.255V9.2343C133.276 9.89993 133.693 10.3282 134.394 10.3282H135.198V11.9071H134.487C133.941 11.9071 133.528 11.7523 133.229 11.5408C133.049 13.2023 131.709 14.0485 130.385 13.9401Z" fill="#E7AC6D"/>
<path d="M137.249 10.333H135.09V11.9119H137.249V10.333Z" fill="#E7AC6D"/>
<path d="M139.305 10.333H137.146V11.9119H139.305V10.333Z" fill="#E7AC6D"/>
<path d="M141.356 10.333H139.197V11.9119H141.356V10.333Z" fill="#E7AC6D"/>
<path d="M143.407 10.333H141.248V11.9119H143.407V10.333Z" fill="#E7AC6D"/>
<path d="M145.458 10.333H143.299V11.9119H145.458V10.333Z" fill="#E7AC6D"/>
<path d="M147.514 10.333H145.355V11.9119H147.514V10.333Z" fill="#E7AC6D"/>
<path d="M149.565 10.333H147.406V11.9119H149.565V10.333Z" fill="#E7AC6D"/>
<path d="M151.616 10.333H149.457V11.9119H151.616V10.333Z" fill="#E7AC6D"/>
<path d="M153.667 10.333H151.508V11.9119H153.667V10.333Z" fill="#E7AC6D"/>
<path d="M153.61 11.912V10.333H155.012C155.439 10.333 155.697 10.0853 155.697 9.62096V6.99457H157.3V9.78608C157.325 10.5704 157.764 11.0193 158.258 11.0193C159.041 11.0193 159.206 10.4259 159.217 9.85315V6.98941H160.809V9.78092C160.835 10.5652 161.273 11.0141 161.767 11.0141C162.551 11.0141 162.716 10.4207 162.731 9.84799V6.62821H164.318V9.84799C164.318 11.0245 163.88 12.139 162.458 12.139C161.649 12.139 161.154 11.8191 160.654 11.1277C160.428 11.7107 159.552 12.139 158.944 12.139C158.14 12.139 157.459 11.9481 156.965 10.9625C156.681 11.4734 156.145 11.9016 155.151 11.9016H153.61V11.912ZM159.624 5.59107H158.001V4.21338H159.624V5.59107ZM160.737 3.60967H159.242V2.34033H160.737V3.60967ZM161.974 5.59107H160.361V4.21338H161.974V5.59107Z" fill="#E7AC6D"/>
<path d="M28.9669 26.1641C27.8281 26.1641 27.2921 25.6068 27.0448 24.9979C26.7974 25.2817 26.2873 25.6894 25.4886 25.6378C24.36 25.5758 23.4582 24.58 23.4479 23.5325C23.4119 21.6543 24.8496 20.9887 26.8284 20.9784V20.5759L28.431 20.1837V23.8679C28.431 24.3323 28.6938 24.58 29.106 24.58H30.116V26.1589H28.9669V26.1641ZM25.4783 19.7039H23.8653V18.3262H25.4783V19.7039ZM26.8284 21.9742C26.009 21.9742 25.0145 22.3199 24.9784 23.4242C24.9681 23.8266 25.1897 24.5077 25.8699 24.5181C26.3904 24.5284 26.8284 24.1517 26.8284 23.388V21.9742ZM27.8281 19.7039H26.2151V18.3262H27.8281V19.7039Z" fill="#E7AC6D"/>
<path d="M29.7964 26.8453H31.4093V28.2127H29.7964V26.8453ZM31.6463 26.1693C32.3832 26.1693 32.9965 25.834 33.285 25.3386C33.5942 25.7669 34.1147 26.1693 34.9804 26.1693H35.6812V24.5904H34.8877C34.1765 24.5904 33.7488 24.1415 33.7488 23.4398V21.252H32.1462V23.641C32.1462 24.3169 31.8113 24.5904 31.198 24.5904H30.0231V26.1693H31.6463ZM32.1462 26.8453H33.7591V28.2127H32.1462V26.8453Z" fill="#E7AC6D"/>
<path d="M35.6194 26.1636V24.5847H37.021C37.4487 24.5847 37.7064 24.337 37.7064 23.8726V20.8799H39.309V23.7797C39.309 24.4557 39.1544 26.1688 37.1602 26.1688H35.6194V26.1636ZM38.9638 28.2069H37.3405V26.8396H38.9638V28.2069Z" fill="#E7AC6D"/>
<path d="M41.4218 28.197C40.6849 28.1402 40.1026 27.8667 40.1026 27.8667L39.8398 26.5458C39.8398 26.5458 40.5149 26.8193 41.2054 26.8193C41.7723 26.8193 42.6637 26.4632 42.6741 25.3332V21.2466H44.287V23.4911C44.3127 24.1568 44.725 24.585 45.4258 24.585H46.2348V26.164H45.5237C44.9775 26.164 44.5601 26.0092 44.2664 25.7976C44.086 27.4591 42.7462 28.3053 41.4167 28.197" fill="#E7AC6D"/>
<path d="M49.9296 20.498C50.9036 20.5084 52.3877 20.8076 52.7999 23.1451C52.5268 23.6301 52.1352 24.0584 51.6611 24.5847H53.7017V26.1636H51.2592C50.7748 26.1636 50.347 26.0346 49.9296 25.8437C49.5019 26.0346 49.0639 26.1636 48.5795 26.1636H46.137V24.5847H48.1673C47.6829 24.0635 47.3016 23.6353 47.0388 23.1348C47.4407 20.7922 48.9248 20.5084 49.909 20.498H49.9348H49.9296ZM48.7444 22.8974C48.899 23.207 49.2907 23.7178 49.9193 24.1564C50.548 23.7024 50.9397 23.207 51.0942 22.8974C50.8211 22.077 50.11 21.9377 49.9193 21.9377C49.7287 21.9377 49.0072 22.0563 48.7444 22.8974Z" fill="#E7AC6D"/>
<path d="M53.6555 26.1639V24.585H55.0572C55.4849 24.585 55.7425 24.3373 55.7425 23.8729V18.4653H57.3451V23.7749C57.3451 24.4508 57.1906 26.1639 55.1963 26.1639H53.6555Z" fill="#E7AC6D"/>
<path d="M60.6377 18.4653H59.0505V26.1639H60.6377V18.4653Z" fill="#E7AC6D"/>
<path d="M65.9765 28.197C65.2396 28.1402 64.6573 27.8667 64.6573 27.8667L64.3945 26.5458C64.3945 26.5458 65.0696 26.8193 65.7601 26.8193C66.327 26.8193 67.2184 26.4632 67.2287 25.3332V21.2466H68.8417V23.4911C68.8674 24.1568 69.2797 24.585 69.9805 24.585H70.7895V26.164H70.0784C69.5322 26.164 69.1148 26.0092 68.8211 25.7976C68.6407 27.4591 67.3009 28.3053 65.9714 28.197" fill="#E7AC6D"/>
<path d="M70.4648 26.8453H72.0778V28.2127H70.4648V26.8453ZM72.3148 26.1693C73.0517 26.1693 73.6649 25.834 73.9535 25.3386C74.2627 25.7669 74.7832 26.1693 75.6489 26.1693H76.3497V24.5904H75.5561C74.845 24.5904 74.4173 24.1415 74.4173 23.4398V21.252H72.8147V23.641C72.8147 24.3169 72.4849 24.5904 71.8665 24.5904H70.6916V26.1693H72.3148ZM72.8147 26.8453H74.4276V28.2127H72.8147V26.8453Z" fill="#E7AC6D"/>
<path d="M79.1117 24.5852H82.956V26.1641H76.2878V24.5852H77.4627V23.5739C77.4627 22.0672 78.3027 20.5708 80.2609 20.5708C81.6471 20.5708 82.7653 21.5099 82.7653 23.0992H81.1781C81.1318 22.3871 80.7762 22.1394 80.1836 22.1394C79.5188 22.1394 79.1169 22.6761 79.1169 23.5636V24.5852H79.1117ZM80.9772 19.5388H79.3539V18.1611H80.9772V19.5388Z" fill="#E7AC6D"/>
<path d="M92.2418 26.1641C91.103 26.1641 90.5671 25.6068 90.3197 24.9979C90.0724 25.2817 89.5622 25.6894 88.7635 25.6378C87.6349 25.5758 86.7331 24.58 86.7228 23.5325C86.6868 21.6543 88.1245 20.9887 90.1033 20.9784V20.5759L91.7059 20.1837V23.8679C91.7059 24.3323 91.9687 24.58 92.3809 24.58H93.391V26.1589H92.2418V26.1641ZM88.7532 19.7039H87.1402V18.3262H88.7532V19.7039ZM90.1033 21.9742C89.2839 21.9742 88.2894 22.3199 88.2533 23.4242C88.243 23.8266 88.4646 24.5077 89.1448 24.5181C89.6653 24.5284 90.1033 24.1517 90.1033 23.388V21.9742ZM91.0978 19.7039H89.4849V18.3262H91.0978V19.7039Z" fill="#E7AC6D"/>
<path d="M93.0715 26.8453H94.6845V28.2127H93.0715V26.8453ZM94.9215 26.1693C95.6584 26.1693 96.2716 25.834 96.5602 25.3386C96.8694 25.7669 97.3898 26.1693 98.2556 26.1693H98.9564V24.5904H98.1628C97.4517 24.5904 97.024 24.1415 97.024 23.4398V21.252H95.4213V23.641C95.4213 24.3169 95.0864 24.5904 94.4732 24.5904H93.2983V26.1693H94.9215ZM95.4213 26.8453H97.0343V28.2127H95.4213V26.8453Z" fill="#E7AC6D"/>
<path d="M104.934 23.0526C104.924 23.7286 104.661 24.1465 104.367 24.5851H105.908V26.1641H103.558C103.177 26.1641 102.765 26.0918 102.373 25.9009C102.053 26.0918 101.533 26.1641 101.224 26.1641H98.8481V24.5851H100.368C100.059 24.1465 99.8221 23.7286 99.8221 23.0526C99.8221 21.7678 100.806 20.4882 102.373 20.4882C103.939 20.4882 104.934 21.773 104.934 23.0526ZM101.966 19.3117H100.353V17.9443H101.966V19.3117ZM102.368 24.2652C102.368 24.2652 103.28 23.8627 103.316 23.0526C103.316 22.5986 103.032 22.0207 102.368 22.0207C101.703 22.0207 101.42 22.6037 101.42 23.0526C101.445 23.8834 102.368 24.2652 102.368 24.2652ZM104.316 19.3117H102.703V17.9443H104.316V19.3117Z" fill="#E7AC6D"/>
<path d="M107.201 28.2069H105.588V26.8396H107.201V28.2069ZM105.861 26.1636V24.5847H107.263C107.691 24.5847 107.948 24.337 107.948 23.8726V20.8799H109.551V23.7797C109.551 24.4557 109.397 26.1688 107.402 26.1688H105.861V26.1636ZM109.551 28.2069H107.938V26.8396H109.551V28.2069Z" fill="#E7AC6D"/>
<path d="M111.664 28.197C110.927 28.1402 110.345 27.8667 110.345 27.8667L110.087 26.5458C110.087 26.5458 110.762 26.8193 111.453 26.8193C112.025 26.8193 112.911 26.4632 112.921 25.3332V21.2466H114.534V23.4911C114.555 24.1568 114.972 24.585 115.673 24.585H116.477V26.164H115.766C115.22 26.164 114.807 26.0092 114.509 25.7976C114.328 27.4591 112.988 28.3053 111.664 28.197Z" fill="#E7AC6D"/>
<path d="M120.146 23.2795C119.78 23.718 119.29 23.909 118.677 23.909C117.858 23.909 116.894 23.3259 116.93 22.2836C117.002 20.1577 119.162 20.3331 121.759 20.3331L121.748 23.78C121.748 24.4559 121.594 26.169 119.6 26.169H116.42V24.5901H119.471C119.888 24.5901 120.146 24.3424 120.146 23.878V23.2846V23.2795ZM118.461 22.0772C118.461 22.5158 118.791 22.8357 119.244 22.8357C120.12 22.8357 120.156 21.8605 120.156 21.231C119.6 21.2207 118.461 21.2052 118.461 22.072M120.491 19.2805H118.868V17.9028H120.491V19.2805Z" fill="#E7AC6D"/>
<path d="M122.625 18.0267L122.805 17.4333H123.124V17.1598C123.124 16.6954 123.351 16.2568 123.918 16.2568C124.402 16.2568 124.665 16.5045 124.712 17.0515H124.119C124.119 16.8967 124 16.8399 123.918 16.8399C123.743 16.8399 123.707 16.9792 123.707 17.1598V17.4333H124.227C124.227 17.4333 124.418 17.4436 124.464 17.294L124.856 17.65C124.737 17.9338 124.402 18.0318 124.191 18.0318H122.625V18.0267ZM124.181 24.5849H123.372L122.743 26.1639H125.665C127.659 26.1639 127.814 24.4508 127.814 23.7748V18.5014H126.211V23.9451C126.211 24.2753 126.056 24.5282 125.809 24.5849L124.361 18.6717H122.722L124.181 24.5849Z" fill="#E7AC6D"/>
<path d="M131.101 18.4653H129.514V26.1639H131.101V18.4653Z" fill="#E7AC6D"/>
<path d="M140.975 18.4653H142.562V24.2289C142.562 26.6541 140.856 28.2072 138.671 28.2072C136.487 28.2072 134.863 26.458 134.863 24.2031C134.863 23.4188 134.91 23.0164 135.111 22.3869H136.77C136.77 22.3869 136.414 23.1092 136.414 24.2031C136.414 25.488 137.517 26.6025 138.671 26.6025C139.893 26.6025 140.975 25.6376 140.975 24.167V18.4653Z" fill="#E7AC6D"/>
<path d="M145.303 26.6541C145.577 26.7367 145.958 26.8192 146.334 26.8192H146.36C146.643 26.8192 147.473 26.8089 147.746 26.1639H146.855C145.267 26.1639 144.056 24.9771 144.056 23.455C144.056 21.9328 145.149 20.875 146.855 20.875H149.431V25.746C149.431 27.6138 147.901 28.1917 146.69 28.1917C146.37 28.1917 145.968 28.1298 145.716 28.0627L145.298 26.6489L145.303 26.6541ZM147.818 22.3043H146.808C146.107 22.3043 145.705 22.908 145.705 23.455C145.705 24.0483 146.107 24.585 146.808 24.585H147.818V22.3043Z" fill="#E7AC6D"/>
<path d="M154.084 22.4125C154.084 22.4125 154.084 21.8553 153.394 21.8553C153.121 21.8553 152.739 21.9946 152.683 22.5209H151.173C151.235 20.9884 152.683 20.7407 153.368 20.7407C154.888 20.7407 155.718 21.3806 155.718 22.8098V24.59H157.377V26.1689H150.926V24.59H154.079V22.4177L154.084 22.4125Z" fill="#E7AC6D"/>
<path d="M157.336 26.1639V24.585H158.738C159.165 24.585 159.428 24.3373 159.428 23.8729V18.4653H161.031V23.7749C161.031 24.4508 160.876 26.1639 158.882 26.1639H157.341H157.336Z" fill="#E7AC6D"/>
<path d="M164.318 18.4653H162.731V26.1639H164.318V18.4653Z" fill="#E7AC6D"/>
<path d="M6.02829 35.1196L5.37385 35.7285C4.8843 35.2125 4.30716 34.97 3.6321 34.9855C2.95189 34.9958 2.41081 35.2435 2.02433 35.7234C1.63269 36.2032 1.44203 36.7553 1.44203 37.3848C1.44203 38.0144 1.63785 38.551 2.02949 39.0257C2.42112 39.4952 2.95704 39.7326 3.6321 39.7326C3.97221 39.7326 4.30716 39.6552 4.64726 39.4952C4.98737 39.3353 5.27079 39.1186 5.50783 38.8348L6.23442 39.3972C5.5336 40.2486 4.66788 40.6769 3.6321 40.6769C2.95704 40.6769 2.36959 40.5169 1.87489 40.1918C1.38019 39.8668 1.01947 39.4643 0.792736 38.9741C0.565999 38.4839 0.452637 37.9576 0.452637 37.39C0.452637 36.9721 0.519627 36.5644 0.653607 36.1671C0.787588 35.7698 0.983404 35.4138 1.23075 35.0938C1.48325 34.7739 1.81821 34.5211 2.24076 34.3302C2.65817 34.1393 3.12194 34.0464 3.6321 34.0464C4.64211 34.0464 5.44084 34.4076 6.02314 35.1248" fill="#A77646"/>
<path d="M9.87776 34.0464C10.7641 34.0464 11.5164 34.3663 12.14 35.001C12.7635 35.6408 13.0727 36.4251 13.0727 37.359C13.0727 38.293 12.7635 39.0928 12.14 39.7223C11.5164 40.3518 10.7641 40.6665 9.87776 40.6665C8.99143 40.6665 8.23392 40.3518 7.61555 39.7326C6.99718 39.1083 6.68799 38.3188 6.68799 37.359C6.68799 36.3993 6.99718 35.6202 7.61555 34.9906C8.23392 34.3611 8.98627 34.0464 9.87776 34.0464ZM7.68254 37.3642C7.68254 38.0918 7.89897 38.6697 8.33698 39.0928C8.77499 39.5159 9.28515 39.7274 9.88291 39.7274C10.4807 39.7274 10.9857 39.5159 11.4237 39.0928C11.8669 38.6697 12.0884 38.0918 12.0884 37.3642C12.0884 36.6367 11.8669 36.0639 11.4185 35.6253C10.9754 35.1867 10.4601 34.9752 9.87261 34.9803C9.28516 34.9855 8.77499 35.2022 8.33698 35.6356C7.89897 36.0639 7.68254 36.6418 7.68254 37.3642Z" fill="#A77646"/>
<path d="M17.4888 38.3137L19.1635 34.1445H20.2869V40.5325H19.2975V37.3334L19.4366 35.8267L19.3903 35.8163L18.9213 37.1786L17.8237 39.5624H16.9683L15.881 37.1734L15.3502 35.8163L15.309 35.8267L15.4481 37.3334V40.5325H14.4587V34.1445H15.6388L17.4888 38.3137Z" fill="#A77646"/>
<path d="M22.9408 38.3291V40.5427H21.9514V34.1548H23.889C24.5692 34.1548 25.1 34.3612 25.4761 34.7791C25.8523 35.1971 26.043 35.6873 26.043 36.26C26.043 36.8328 25.8523 37.3178 25.4761 37.7203C25.0948 38.1279 24.5692 38.3291 23.889 38.3291H22.946H22.9408ZM23.889 37.3849C24.2549 37.3849 24.5383 37.2714 24.7444 37.0392C24.9505 36.8121 25.0536 36.549 25.0536 36.26C25.0536 35.9711 24.9505 35.6976 24.7392 35.4551C24.528 35.2177 24.2445 35.0939 23.889 35.0939H22.9408V37.3797H23.889V37.3849Z" fill="#A77646"/>
<path d="M26.1306 40.5321L28.4031 34.1338H29.5111L31.7114 40.5321H30.722L30.0058 38.6332H27.8569L27.2282 40.5321H26.1306ZM28.1712 37.6941H29.7017L29.1143 35.8778L28.97 35.2225H28.9236L28.7793 35.8778L28.1764 37.6941H28.1712Z" fill="#A77646"/>
<path d="M33.8292 34.1445L36.1481 38.2776L36.5192 39.2374L36.5449 39.227L36.4161 38.0506V34.1445H37.4004V40.5325H36.313L33.9684 36.3994L33.4737 35.4448L33.4479 35.4551L33.5871 36.6316V40.5325H32.5977V34.1445H33.8292Z" fill="#A77646"/>
<path d="M43.6305 34.1392L41.4352 37.9988V40.5323H40.4459V37.9781L38.2712 34.1392H39.4616L40.9457 36.8894L42.4246 34.1392H43.6305Z" fill="#A77646"/>
<path d="M49.505 34.0464C50.3913 34.0464 51.1436 34.3663 51.7672 35.001C52.3907 35.6408 52.6999 36.4251 52.6999 37.359C52.6999 38.293 52.3907 39.0928 51.7672 39.7223C51.1436 40.3518 50.3913 40.6665 49.505 40.6665C48.6186 40.6665 47.8611 40.3518 47.2427 39.7326C46.6244 39.1083 46.3152 38.3188 46.3152 37.359C46.3152 36.3993 46.6244 35.6202 47.2427 34.9906C47.8611 34.3611 48.6135 34.0464 49.505 34.0464ZM47.3097 37.3642C47.3097 38.0918 47.5262 38.6697 47.9642 39.0928C48.4022 39.5159 48.9123 39.7274 49.5101 39.7274C50.1079 39.7274 50.6129 39.5159 51.0509 39.0928C51.494 38.6697 51.7156 38.0918 51.7156 37.3642C51.7156 36.6367 51.4941 36.0639 51.0457 35.6253C50.6026 35.1867 50.0873 34.9752 49.4998 34.9803C48.9123 34.9855 48.4022 35.2022 47.9642 35.6356C47.5262 36.0639 47.3097 36.6418 47.3097 37.3642Z" fill="#A77646"/>
<path d="M57.6108 34.1753V35.1196H55.0394V36.9307H57.5748V37.8749H55.0394V40.5375H54.05V34.1753H57.6108Z" fill="#A77646"/>
<path d="M64.0471 38.3137L65.7219 34.1445H66.8453V40.5325H65.8558V37.3334L65.995 35.8267L65.9486 35.8163L65.4797 37.1786L64.3872 39.5624H63.5266L62.4394 37.1734L61.9086 35.8163L61.8673 35.8267L62.0065 37.3334V40.5325H61.0171V34.1445H62.1972L64.0471 38.3137Z" fill="#A77646"/>
<path d="M68.5303 34.1855H69.5197V38.6334C69.5197 38.9894 69.633 39.2577 69.8546 39.4383C70.0762 39.6189 70.3493 39.7118 70.674 39.7118C70.9986 39.7118 71.2717 39.6189 71.5036 39.4383C71.7355 39.2577 71.8489 38.9894 71.8489 38.6334V34.1855H72.8383V38.6334C72.8383 39.0875 72.7301 39.4693 72.5136 39.784C72.2972 40.0988 72.0344 40.3207 71.7149 40.4548C71.4006 40.589 71.0501 40.6561 70.674 40.6561C70.0762 40.6561 69.5712 40.4858 69.1538 40.1504C68.7364 39.8098 68.5303 39.3042 68.5303 38.6334V34.1855Z" fill="#A77646"/>
<path d="M73.6475 34.165H77.7442V35.1093H76.1982V40.5324H75.2089V35.1093H73.6475V34.165Z" fill="#A77646"/>
<path d="M77.5173 40.5321L79.7899 34.1338H80.8926L83.0982 40.5321H82.1088L81.3925 38.6332H79.2436L78.6149 40.5321H77.5173ZM79.558 37.6941H81.0833L80.4958 35.8778L80.3515 35.2225H80.3052L80.1609 35.8778L79.558 37.6941Z" fill="#A77646"/>
<path d="M87.4525 36.1052L87.2258 37.3487L86.3291 40.5633H85.0254L83.4382 34.165H84.5255L85.5922 38.5768L85.7365 39.6655H85.7726L85.9426 38.5768L86.9063 34.9287L88.0606 34.9235L89.0087 38.5716L89.1788 39.6655H89.2149L89.3591 38.5768L90.4207 34.165H91.4101L89.7868 40.5633H88.5759L87.7101 37.3539L87.4886 36.1052H87.4525Z" fill="#A77646"/>
<path d="M93.4867 34.1548H92.4973V40.5324H93.4867V34.1548Z" fill="#A77646"/>
<path d="M98.2896 34.1753V35.1196H95.713V36.9307H98.2535V37.8749H95.713V40.5375H94.7288V34.1753H98.2896Z" fill="#A77646"/>
<path d="M100.016 35.842C100.005 36.0278 100.062 36.1929 100.191 36.3322C100.32 36.4715 100.459 36.5696 100.598 36.6366C100.737 36.6986 100.907 36.7553 101.098 36.8069C101.33 36.8688 101.526 36.9256 101.685 36.9824C101.85 37.0391 102.02 37.1268 102.211 37.2352C102.396 37.3487 102.546 37.4725 102.654 37.617C102.767 37.7615 102.855 37.9369 102.927 38.1588C102.999 38.3755 103.025 38.6232 103.015 38.9018C102.984 39.4694 102.767 39.908 102.355 40.2176C101.943 40.5272 101.464 40.682 100.912 40.682C100.464 40.682 100.047 40.5582 99.6549 40.3053C99.2633 40.0525 98.9799 39.6913 98.8047 39.2114L99.5931 38.8038C99.8817 39.4282 100.33 39.7377 100.933 39.7377C101.247 39.7429 101.505 39.6655 101.701 39.4952C101.902 39.3301 102.005 39.1134 102.02 38.8451C102.031 38.6645 102.005 38.5045 101.938 38.3704C101.871 38.2362 101.768 38.1227 101.629 38.0401C101.489 37.9524 101.361 37.8905 101.247 37.8441C101.134 37.7976 100.99 37.7563 100.825 37.7099C100.629 37.6531 100.459 37.6015 100.315 37.5499C100.165 37.4983 100.005 37.4209 99.825 37.3178C99.6446 37.2146 99.5004 37.101 99.387 36.972C99.2736 36.843 99.1757 36.6779 99.1036 36.4767C99.0263 36.2755 98.9954 36.0484 99.0005 35.8059C99.0108 35.2228 99.2169 34.7791 99.6137 34.4695C100.011 34.1599 100.474 34.0103 101.005 34.0103C101.443 34.0103 101.83 34.1341 102.175 34.3818C102.52 34.6294 102.773 34.9855 102.927 35.4447L102.139 35.8162C102.025 35.5376 101.86 35.326 101.649 35.1764C101.438 35.0268 101.216 34.9545 100.99 34.9545C100.737 34.9494 100.516 35.0216 100.325 35.1764C100.134 35.3312 100.031 35.5531 100.011 35.842" fill="#A77646"/>
<path d="M110.203 34.1753V35.1196H107.632V36.9307H110.167V37.8749H107.632V40.5375H106.643V34.1753H110.203Z" fill="#A77646"/>
<path d="M114.043 34.0464C114.929 34.0464 115.681 34.3663 116.305 35.001C116.928 35.6408 117.237 36.4251 117.237 37.359C117.237 38.293 116.928 39.0928 116.305 39.7223C115.681 40.3518 114.929 40.6665 114.043 40.6665C113.156 40.6665 112.399 40.3518 111.78 39.7326C111.162 39.1083 110.858 38.3188 110.858 37.359C110.858 36.3993 111.167 35.6202 111.78 34.9906C112.399 34.3611 113.151 34.0464 114.043 34.0464ZM111.842 37.3642C111.842 38.0918 112.059 38.6697 112.497 39.0928C112.935 39.5159 113.45 39.7274 114.043 39.7274C114.635 39.7274 115.145 39.5159 115.588 39.0928C116.032 38.6697 116.253 38.0918 116.253 37.3642C116.253 36.6367 116.032 36.0639 115.583 35.6253C115.14 35.1867 114.625 34.9752 114.037 34.9803C113.45 34.9855 112.94 35.2022 112.502 35.6356C112.069 36.0639 111.847 36.6418 111.847 37.3642" fill="#A77646"/>
<path d="M121.247 38.061L123.143 40.5326H121.911L120.072 38.1023H119.592V40.5326H118.603V34.1704H120.638C121.288 34.1704 121.808 34.3304 122.205 34.6554C122.602 34.9754 122.803 35.4759 122.808 36.1518C122.808 36.7039 122.674 37.1425 122.38 37.4676C122.092 37.7875 121.71 37.9887 121.247 38.061ZM119.587 37.158H120.644C121.01 37.158 121.293 37.0703 121.504 36.8897C121.716 36.7091 121.819 36.4614 121.819 36.1415C121.819 35.8216 121.71 35.5636 121.499 35.383C121.288 35.2024 121.004 35.1147 120.644 35.1147H119.587V37.158Z" fill="#A77646"/>
<path d="M127.404 38.3291V40.5427H126.42V34.1548H128.358C129.038 34.1548 129.569 34.3612 129.945 34.7791C130.321 35.1971 130.507 35.6873 130.507 36.26C130.507 36.8328 130.316 37.3178 129.94 37.7203C129.564 38.1279 129.033 38.3291 128.353 38.3291H127.41H127.404ZM128.353 37.3849C128.718 37.3849 129.002 37.2714 129.208 37.0392C129.414 36.8121 129.517 36.549 129.517 36.26C129.517 35.9711 129.414 35.6976 129.203 35.4551C128.992 35.2177 128.708 35.0939 128.353 35.0939H127.404V37.3797H128.353V37.3849Z" fill="#A77646"/>
<path d="M132.563 34.1548H131.573V40.5324H132.563V34.1548Z" fill="#A77646"/>
<path d="M137.175 39.5931V40.5322H133.799V34.1855H134.789V39.5931H137.175Z" fill="#A77646"/>
<path d="M140.689 34.0462C141.184 34.0462 141.658 34.1545 142.106 34.3764C142.555 34.5983 142.946 34.9027 143.271 35.2897L142.529 35.8986C142.287 35.6148 142.003 35.3929 141.679 35.233C141.354 35.073 141.024 34.9956 140.689 34.9956C140.236 34.9956 139.839 35.1143 139.494 35.3568C139.149 35.5993 138.896 35.8986 138.731 36.2495C138.566 36.6055 138.484 36.977 138.484 37.3692C138.484 37.9935 138.685 38.5353 139.076 39.01C139.473 39.4847 140.009 39.7169 140.684 39.7169C141.184 39.7169 141.632 39.5828 142.019 39.3144C142.41 39.0461 142.642 38.6488 142.72 38.1225H140.184V37.1782H143.817C143.848 38.2515 143.575 39.0977 143.003 39.7221C142.431 40.3464 141.658 40.6612 140.684 40.6612C140.009 40.6612 139.422 40.5012 138.927 40.1761C138.432 39.8511 138.072 39.4434 137.845 38.9532C137.618 38.4631 137.5 37.9367 137.494 37.364C137.494 36.946 137.561 36.5436 137.695 36.1514C137.829 35.7593 138.025 35.4084 138.278 35.0885C138.53 34.7686 138.87 34.5157 139.288 34.3248C139.705 34.1339 140.169 34.041 140.679 34.041" fill="#A77646"/>
<path d="M147.893 38.061L149.79 40.5326H148.558L146.718 38.1023H146.239V40.5326H145.25V34.1704H147.285C147.935 34.1704 148.455 34.3304 148.852 34.6554C149.249 34.9754 149.45 35.4759 149.455 36.1518C149.455 36.7039 149.321 37.1425 149.027 37.4676C148.738 37.7875 148.357 37.9887 147.893 38.061ZM146.234 37.158H147.29C147.656 37.158 147.94 37.0703 148.151 36.8897C148.362 36.7091 148.465 36.4614 148.465 36.1415C148.465 35.8216 148.357 35.5636 148.146 35.383C147.935 35.2024 147.651 35.1147 147.29 35.1147H146.234V37.158Z" fill="#A77646"/>
<path d="M151.49 34.1548H150.501V40.5324H151.49V34.1548Z" fill="#A77646"/>
<path d="M156.076 38.3137L157.751 34.1445H158.875V40.5325H157.885V37.3334L158.024 35.8267L157.983 35.8163L157.509 37.1786L156.417 39.5624H155.556L154.469 37.1734L153.943 35.8163L153.897 35.8267L154.036 37.3334V40.5325H153.046V34.1445H154.226L156.076 38.3137Z" fill="#A77646"/>
<path d="M161.317 35.842C161.307 36.0278 161.363 36.1929 161.492 36.3322C161.621 36.4715 161.76 36.5696 161.899 36.6366C162.038 36.6986 162.208 36.7553 162.399 36.8069C162.631 36.8688 162.827 36.9256 162.987 36.9824C163.151 37.0391 163.327 37.1268 163.512 37.2352C163.698 37.3487 163.847 37.4725 163.955 37.617C164.069 37.7615 164.156 37.9369 164.228 38.1588C164.301 38.3755 164.326 38.6232 164.316 38.9018C164.285 39.4694 164.069 39.908 163.656 40.2176C163.244 40.5272 162.765 40.682 162.214 40.682C161.765 40.682 161.348 40.5582 160.956 40.3053C160.565 40.0525 160.281 39.6913 160.106 39.2114L160.894 38.8038C161.183 39.4282 161.631 39.7377 162.234 39.7377C162.549 39.7429 162.806 39.6655 163.002 39.4952C163.203 39.3301 163.306 39.1134 163.321 38.8451C163.332 38.6645 163.306 38.5045 163.239 38.3704C163.172 38.2362 163.069 38.1227 162.93 38.0401C162.791 37.9524 162.662 37.8905 162.549 37.8441C162.435 37.7976 162.291 37.7563 162.126 37.7099C161.93 37.6531 161.76 37.6015 161.616 37.5499C161.466 37.4983 161.307 37.4209 161.126 37.3178C160.946 37.2146 160.802 37.101 160.688 36.972C160.575 36.843 160.477 36.6779 160.405 36.4767C160.328 36.2755 160.297 36.0484 160.302 35.8059C160.312 35.2228 160.518 34.7791 160.915 34.4695C161.312 34.1599 161.776 34.0103 162.306 34.0103C162.739 34.0103 163.131 34.1341 163.476 34.3818C163.821 34.6294 164.074 34.9855 164.228 35.4447L163.44 35.8162C163.327 35.5376 163.162 35.326 162.95 35.1764C162.739 35.0268 162.518 34.9545 162.291 34.9545C162.038 34.9494 161.817 35.0216 161.626 35.1764C161.435 35.3312 161.332 35.5531 161.312 35.842" fill="#A77646"/>
<path d="M5.2605 45.0625V46.0068H2.68394V47.823H5.22443V48.7622H2.68394V51.4247H1.69971V45.0625H5.2605Z" fill="#A77646"/>
<path d="M9.05321 48.9482L10.9496 51.4198H9.71796L7.8783 48.9895H7.39906V51.4198H6.40967V45.0576H8.44514C9.09443 45.0576 9.61489 45.2176 10.0117 45.5426C10.4085 45.8677 10.6095 46.3631 10.6146 47.039C10.6198 47.5911 10.4806 48.0297 10.192 48.3548C9.90347 48.6747 9.5273 48.8759 9.05836 48.9482M7.39906 48.0452H8.45545C8.82132 48.0452 9.10474 47.9575 9.31602 47.7769C9.5273 47.5963 9.63036 47.3486 9.63036 47.0287C9.63036 46.7088 9.52214 46.4508 9.31086 46.2702C9.09958 46.0896 8.81617 46.0019 8.45545 46.0019H7.39906V48.0452Z" fill="#A77646"/>
<path d="M14.7679 44.9336C15.6542 44.9336 16.4066 45.2535 17.0301 45.8882C17.6536 46.528 17.9628 47.3123 17.9628 48.2463C17.9628 49.1802 17.6536 49.98 17.0301 50.6095C16.4066 51.239 15.6542 51.5538 14.7679 51.5538C13.8816 51.5538 13.1241 51.239 12.5057 50.6198C11.8873 49.9955 11.5781 49.206 11.5781 48.2463C11.5781 47.2865 11.8873 46.5074 12.5057 45.8779C13.1241 45.2483 13.8764 44.9336 14.7679 44.9336ZM12.5727 48.2514C12.5727 48.979 12.7891 49.5569 13.2271 49.98C13.6651 50.4031 14.1753 50.6147 14.773 50.6147C15.3708 50.6147 15.8758 50.4031 16.3138 49.98C16.757 49.5569 16.9786 48.979 16.9786 48.2514C16.9786 47.5239 16.757 46.9511 16.3087 46.5125C15.8655 46.0739 15.3502 45.8624 14.7627 45.8675C14.1753 45.8727 13.6651 46.0894 13.2271 46.5228C12.7891 46.9511 12.5727 47.529 12.5727 48.2514Z" fill="#A77646"/>
<path d="M22.4719 49.2007L24.1467 45.0366H25.2701V51.4246H24.2807V48.2203L24.4198 46.7136L24.3734 46.7033L23.9045 48.0655L22.8069 50.4545H21.9515L20.8642 48.0655L20.3334 46.7033L20.2922 46.7136L20.4313 48.2203V51.4246H19.4419V45.0366H20.622L22.4719 49.2007Z" fill="#A77646"/>
<path d="M28.7585 51.4251L31.0311 45.0269H32.139L34.3394 51.4251H33.35L32.6337 49.5263H30.4848L29.8562 51.4251H28.7585ZM30.7992 48.5872H32.3297L31.7422 46.7709L31.5979 46.1156H31.5515L31.4072 46.7709L30.8043 48.5872H30.7992Z" fill="#A77646"/>
<path d="M38.8586 45.0625V46.0068H36.2872V47.823H38.8226V48.7622H36.2872V51.4247H35.2979V45.0625H38.8586Z" fill="#A77646"/>
<path d="M42.6565 48.9482L44.5528 51.4198H43.3212L41.4816 48.9895H41.0023V51.4198H40.0129V45.0576H42.0484C42.6977 45.0576 43.2182 45.2176 43.615 45.5426C44.0118 45.8677 44.2127 46.3631 44.2179 47.039C44.223 47.5911 44.0839 48.0297 43.7953 48.3548C43.5068 48.6747 43.1306 48.8759 42.6616 48.9482M41.0023 48.0452H42.0587C42.4246 48.0452 42.708 47.9575 42.9193 47.7769C43.1306 47.5963 43.2336 47.3486 43.2336 47.0287C43.2336 46.7088 43.1254 46.4508 42.9141 46.2702C42.7029 46.0896 42.4194 46.0019 42.0587 46.0019H41.0023V48.0452Z" fill="#A77646"/>
<path d="M46.3461 45.0474H45.3567V51.425H46.3461V45.0474Z" fill="#A77646"/>
<path d="M53.1431 46.0069L52.4886 46.6157C51.9991 46.0997 51.4219 45.8572 50.7469 45.8727C50.0615 45.883 49.5256 46.1307 49.1391 46.6106C48.7475 47.0904 48.5517 47.6425 48.5517 48.2721C48.5517 48.9016 48.7475 49.4382 49.1391 49.9129C49.5307 50.3825 50.0667 50.6198 50.7417 50.6198C51.0818 50.6198 51.4168 50.5424 51.7569 50.3825C52.097 50.2225 52.3804 50.0058 52.6175 49.722L53.344 50.2844C52.6432 51.1358 51.7775 51.5641 50.7417 51.5641C50.0667 51.5641 49.4792 51.4041 48.9845 51.079C48.4898 50.754 48.1291 50.3515 47.9024 49.8613C47.6756 49.3711 47.5623 48.8448 47.5623 48.2772C47.5623 47.8593 47.6292 47.4516 47.7632 47.0543C47.8972 46.657 48.093 46.301 48.3404 45.9811C48.5929 45.6611 48.9278 45.4083 49.3504 45.2174C49.7678 45.0265 50.2316 44.9336 50.7417 44.9336C51.7517 44.9336 52.5505 45.2948 53.1328 46.012" fill="#A77646"/>
<path d="M53.7871 51.4251L56.0596 45.0269H57.1675L59.3679 51.4251H58.3785L57.6622 49.5263H55.5134L54.8847 51.4251H53.7871ZM55.8277 48.5872H57.3582L56.7708 46.7709L56.6265 46.1156H56.5801L56.4358 46.7709L55.8329 48.5872H55.8277Z" fill="#A77646"/>
<path d="M61.5736 45.0366L63.8977 49.1645L64.2635 50.1243L64.2893 50.114L64.1605 48.9375V45.0366H65.1499V51.4246H64.0626L61.7128 47.2863L61.2232 46.3318L61.1974 46.3421L61.3314 47.5237V51.4246H60.3472V45.0366H61.5736Z" fill="#A77646"/>
<path d="M70.6378 45.0366L72.9567 49.1645L73.3278 50.1243L73.3535 50.114L73.2247 48.9375V45.0366H74.2089V51.4246H73.1216L70.777 47.2863L70.2823 46.3318L70.2565 46.3421L70.3956 47.5237V51.4246H69.4062V45.0366H70.6378Z" fill="#A77646"/>
<path d="M78.8262 44.9336C79.7126 44.9336 80.4649 45.2535 81.0885 45.8882C81.712 46.528 82.0212 47.3123 82.0212 48.2463C82.0212 49.1802 81.712 49.98 81.0885 50.6095C80.4701 51.239 79.7126 51.5538 78.8262 51.5538C77.9399 51.5538 77.1824 51.239 76.564 50.6198C75.9457 49.9955 75.6365 49.206 75.6365 48.2463C75.6365 47.2865 75.9457 46.5074 76.564 45.8779C77.1824 45.2483 77.9348 44.9336 78.8262 44.9336ZM76.631 48.2514C76.631 48.979 76.8475 49.5569 77.2855 49.98C77.7235 50.4031 78.2336 50.6147 78.8314 50.6147C79.4292 50.6147 79.9342 50.4031 80.3722 49.98C80.8153 49.5569 81.0369 48.979 81.0369 48.2514C81.0369 47.5239 80.8153 46.9511 80.3722 46.5125C79.9239 46.0739 79.4085 45.8624 78.8211 45.8675C78.2336 45.8727 77.7235 46.0894 77.2855 46.5228C76.8475 46.9511 76.631 47.529 76.631 48.2514Z" fill="#A77646"/>
<path d="M84.7111 45.0366L87.03 49.1645L87.401 50.1243L87.4268 50.114L87.2979 48.9375V45.0366H88.2822V51.4246H87.1949L84.8502 47.2863L84.3555 46.3318L84.3298 46.3421L84.4689 47.5237V51.4246H83.4795V45.0366H84.7111Z" fill="#A77646"/>
<path d="M91.7451 51.4251L94.0228 45.0269H95.1256L97.326 51.4251H96.3417L95.6203 49.5263H93.4714L92.8376 51.4251H91.74H91.7451ZM93.7858 48.5872H95.3111L94.7236 46.7709L94.5794 46.1156H94.533L94.3887 46.7709L93.7858 48.5872Z" fill="#A77646"/>
<path d="M100.948 48.9482L102.845 51.4198H101.613L99.7736 48.9895H99.2943V51.4198H98.3049V45.0576H100.34C100.99 45.0576 101.51 45.2176 101.907 45.5426C102.304 45.8626 102.505 46.3631 102.51 47.039C102.51 47.5911 102.376 48.0297 102.082 48.3548C101.794 48.6747 101.412 48.8759 100.948 48.9482ZM99.2892 48.0452H100.346C100.711 48.0452 100.995 47.9575 101.206 47.7769C101.417 47.5963 101.52 47.3486 101.52 47.0287C101.52 46.7088 101.412 46.4508 101.201 46.2702C100.99 46.0896 100.706 46.0019 100.346 46.0019H99.2892V48.0452Z" fill="#A77646"/>
<path d="M103.092 51.4251L105.37 45.0269H106.473L108.673 51.4251H107.684L106.962 49.5263H104.813L104.179 51.4251H103.082H103.092ZM105.133 48.5872H106.658L106.071 46.7709L105.926 46.1156H105.88L105.736 46.7709L105.133 48.5872Z" fill="#A77646"/>
<path d="M113.522 46.7757C113.522 47.0182 113.46 47.2504 113.336 47.4723C113.213 47.6942 113.022 47.8645 112.759 47.9883C113.094 48.1121 113.352 48.3185 113.527 48.6178C113.702 48.9171 113.79 49.2215 113.785 49.5311C113.785 50.1503 113.573 50.625 113.156 50.9449C112.739 51.2648 112.228 51.43 111.62 51.43H109.642V45.042H111.641C112.177 45.042 112.625 45.2019 112.981 45.5167C113.336 45.8315 113.517 46.2546 113.517 46.7809M110.626 47.5858H111.62C111.914 47.5858 112.141 47.5033 112.301 47.3433C112.455 47.1834 112.533 46.9924 112.533 46.7757C112.533 46.559 112.455 46.3784 112.301 46.2236C112.146 46.0688 111.919 45.9914 111.62 45.9914H110.626V47.591V47.5858ZM111.62 48.5301H110.626V50.4909H111.62C112.002 50.4909 112.295 50.398 112.496 50.2071C112.697 50.0161 112.795 49.7943 112.795 49.5311C112.795 49.268 112.692 49.0358 112.491 48.8345C112.29 48.6333 111.997 48.5301 111.62 48.5301Z" fill="#A77646"/>
<path d="M122.751 46.0069L122.097 46.6157C121.607 46.0997 121.03 45.8572 120.355 45.8727C119.675 45.883 119.139 46.1307 118.747 46.6106C118.356 47.0904 118.165 47.6425 118.165 48.2721C118.165 48.9016 118.361 49.4382 118.752 49.9129C119.144 50.3825 119.68 50.6198 120.355 50.6198C120.695 50.6198 121.03 50.5424 121.37 50.3825C121.705 50.2225 121.994 50.0058 122.231 49.722L122.957 50.2844C122.256 51.1358 121.391 51.5641 120.355 51.5641C119.68 51.5641 119.092 51.4041 118.598 51.079C118.103 50.754 117.742 50.3515 117.516 49.8613C117.289 49.3711 117.176 48.8448 117.176 48.2772C117.176 47.8593 117.243 47.4516 117.377 47.0543C117.51 46.657 117.706 46.301 117.959 45.9811C118.211 45.6611 118.546 45.4083 118.969 45.2174C119.386 45.0265 119.85 44.9336 120.36 44.9336C121.37 44.9336 122.169 45.2948 122.751 46.012" fill="#A77646"/>
<path d="M126.693 44.9336C127.58 44.9336 128.332 45.2535 128.956 45.8882C129.579 46.528 129.888 47.3123 129.888 48.2463C129.888 49.1802 129.579 49.98 128.956 50.6095C128.332 51.239 127.58 51.5538 126.693 51.5538C125.807 51.5538 125.05 51.239 124.431 50.6198C123.813 49.9955 123.509 49.206 123.509 48.2463C123.509 47.2865 123.818 46.5074 124.431 45.8779C125.05 45.2483 125.802 44.9336 126.693 44.9336ZM124.493 48.2514C124.493 48.979 124.709 49.5569 125.147 49.98C125.585 50.4031 126.101 50.6147 126.693 50.6147C127.286 50.6147 127.796 50.4031 128.239 49.98C128.683 49.5569 128.904 48.979 128.904 48.2514C128.904 47.5239 128.683 46.9511 128.234 46.5125C127.791 46.0739 127.276 45.8624 126.688 45.8675C126.101 45.8727 125.591 46.0894 125.153 46.5228C124.72 46.9511 124.498 47.529 124.498 48.2514" fill="#A77646"/>
<path d="M131.254 45.0728H132.243V49.5206C132.243 49.8766 132.357 50.1449 132.578 50.3255C132.805 50.5061 133.078 50.599 133.398 50.599C133.717 50.599 133.995 50.5061 134.227 50.3255C134.459 50.1449 134.573 49.8766 134.573 49.5206V45.0728H135.562V49.5206C135.562 49.9747 135.454 50.3565 135.237 50.6713C135.021 50.986 134.758 51.2079 134.439 51.342C134.124 51.4762 133.774 51.5433 133.398 51.5433C132.8 51.5433 132.295 51.373 131.877 51.0376C131.46 50.6971 131.254 50.1914 131.254 49.5206V45.0728Z" fill="#A77646"/>
<path d="M138.509 45.0366L140.828 49.1645L141.199 50.1243L141.225 50.114L141.096 48.9375V45.0366H142.08V51.4246H140.993L138.649 47.2863L138.159 46.3318L138.128 46.3421L138.267 47.5237V51.4246H137.283V45.0366H138.509Z" fill="#A77646"/>
<path d="M143.106 45.0522H147.203V45.9965H145.652V51.4247H144.667V45.9965H143.106V45.0522Z" fill="#A77646"/>
<path d="M150.8 48.9482L152.696 51.4198H151.464L149.625 48.9895H149.145V51.4198H148.156V45.0576H150.191C150.841 45.0576 151.361 45.2176 151.758 45.5426C152.155 45.8626 152.356 46.3631 152.361 47.039C152.361 47.5911 152.227 48.0297 151.933 48.3548C151.645 48.6747 151.263 48.8759 150.8 48.9482ZM149.14 48.0452H150.197C150.563 48.0452 150.846 47.9575 151.057 47.7769C151.268 47.5963 151.372 47.3486 151.372 47.0287C151.372 46.7088 151.263 46.4508 151.052 46.2702C150.841 46.0896 150.557 46.0019 150.197 46.0019H149.14V48.0452Z" fill="#A77646"/>
<path d="M154.489 45.0474H153.5V51.425H154.489V45.0474Z" fill="#A77646"/>
<path d="M159.379 45.0366V45.9809H156.808V47.7662H159.348V48.7105H156.808C156.808 48.9117 156.808 49.2007 156.808 49.5877C156.808 49.9746 156.803 50.2688 156.803 50.47H159.385V51.4143H155.824V45.0366H159.385H159.379Z" fill="#A77646"/>
<path d="M161.317 46.7341C161.307 46.9199 161.363 47.085 161.492 47.2243C161.621 47.3636 161.76 47.4617 161.899 47.5287C162.038 47.5907 162.208 47.6474 162.399 47.699C162.631 47.7609 162.827 47.8177 162.987 47.8744C163.151 47.9312 163.327 48.0189 163.512 48.1273C163.698 48.2408 163.847 48.3646 163.955 48.5091C164.069 48.6536 164.156 48.829 164.228 49.0509C164.301 49.2676 164.326 49.5153 164.316 49.7939C164.285 50.3615 164.069 50.8001 163.656 51.1097C163.244 51.4193 162.765 51.5741 162.214 51.5741C161.765 51.5741 161.348 51.4503 160.956 51.1974C160.565 50.9446 160.281 50.5834 160.106 50.1035L160.894 49.6959C161.183 50.3202 161.631 50.6298 162.234 50.6298C162.549 50.635 162.806 50.5576 163.002 50.3873C163.203 50.2222 163.306 50.0055 163.321 49.7372C163.332 49.5566 163.306 49.3966 163.239 49.2625C163.172 49.1283 163.069 49.0148 162.93 48.9322C162.791 48.8445 162.662 48.7826 162.549 48.7362C162.435 48.6897 162.291 48.6484 162.126 48.602C161.93 48.5452 161.76 48.4936 161.616 48.442C161.466 48.3904 161.307 48.313 161.126 48.2098C160.946 48.1066 160.802 47.9931 160.688 47.8641C160.575 47.7351 160.477 47.57 160.405 47.3688C160.328 47.1675 160.297 46.9405 160.302 46.698C160.312 46.1149 160.518 45.6712 160.915 45.3616C161.312 45.052 161.776 44.9023 162.306 44.9023C162.739 44.9023 163.131 45.0262 163.476 45.2739C163.821 45.5215 164.074 45.8776 164.228 46.3368L163.44 46.7083C163.327 46.4297 163.162 46.2181 162.95 46.0685C162.739 45.9188 162.518 45.8466 162.291 45.8466C162.038 45.8414 161.817 45.9137 161.626 46.0685C161.435 46.2233 161.332 46.4452 161.312 46.7341" fill="#A77646"/>
<path d="M207.268 42.2266C204.505 42.1426 201.737 39.7871 198.97 38.4561C197.88 37.9313 196.781 37.4149 195.687 36.89C195.565 37.1126 195.439 37.3351 195.313 37.5576C198.613 39.447 201.918 41.3407 205.469 43.3771C204.819 43.8221 204.408 44.1748 203.939 44.4057C199.364 46.6899 194.798 48.9908 190.189 51.2077C186.935 52.7738 184.759 51.4428 184.755 47.8991C184.734 39.0566 184.742 30.214 184.805 21.3715C184.835 17.3281 186.705 14.2421 190.168 12.2015C195.355 9.14483 200.609 6.20152 205.775 3.10286C206.325 2.77116 206.799 2.6284 207.26 2.6284V0C206.69 0 206.107 0.193141 205.427 0.604617C200.203 3.76626 194.894 6.78934 189.59 9.81243C184.856 12.5164 182.52 16.5808 182.541 22.0139C182.574 30.6129 182.616 39.2119 182.692 47.8067C182.738 53.0887 186.554 55.377 191.242 52.9418C196.148 50.3889 200.995 47.7353 205.947 45.2749C206.312 45.0943 206.782 44.9936 207.268 44.9726V42.2266Z" fill="#A77646"/>
<path d="M207.268 42.2266C210.032 42.1426 212.799 39.7871 215.567 38.4561C216.657 37.9313 217.755 37.4149 218.85 36.89C218.972 37.1126 219.097 37.3351 219.219 37.5576C215.919 39.447 212.615 41.3407 209.063 43.3771C209.713 43.8221 210.124 44.1748 210.594 44.4057C215.168 46.6899 219.735 48.9908 224.343 51.2077C227.597 52.7738 229.773 51.4428 229.777 47.8991C229.798 39.0566 229.79 30.214 229.727 21.3715C229.698 17.3281 227.828 14.2421 224.364 12.2015C219.177 9.14483 213.919 6.20152 208.757 3.10286C208.208 2.77116 207.734 2.6284 207.273 2.6284V0C207.843 0 208.426 0.193141 209.105 0.604617C214.33 3.76626 219.638 6.78934 224.943 9.81243C229.685 12.5164 232.021 16.5808 232 22.0139C231.966 30.6129 231.924 39.2119 231.849 47.8067C231.803 53.0887 227.983 55.377 223.299 52.9418C218.393 50.3889 213.541 47.7353 208.593 45.2749C208.229 45.0943 207.759 44.9936 207.273 44.9726V42.2266H207.268Z" fill="#E7AC6D"/>
</svg>
