<svg width="16" height="16" viewBox="0 0 16 16" fill="none" xmlns="http://www.w3.org/2000/svg">
<path d="M8 0C3.58667 0 0 3.58667 0 8C0 12.4133 3.58667 16 8 16C8.5 16 8.98667 15.9533 9.46667 15.8667L8.92 14.2267C8.84 14.3067 8.75333 14.3733 8.66667 14.4333V13.46L7.42667 9.74667C7.36 9.55333 7.33333 9.35333 7.33333 9.16V10.5133C6.7 10.54 6.08 10.5933 5.49333 10.6933C5.37333 10.0667 5.29333 9.38667 5.26 8.65333H7.33333V9.16C7.33333 8.68667 7.52 8.22667 7.87333 7.87333C8.21333 7.52667 8.67333 7.33333 9.16667 7.33333C9.36667 7.33333 9.56 7.36667 9.75333 7.42667L13.4267 8.65333H14.6333C14.62 8.78667 14.6067 8.91333 14.58 9.04L15.8667 9.46667C15.9533 8.98667 16 8.5 16 8C16 3.58667 12.4133 0 8 0ZM7.33333 11.8467V14.4333C6.76 14.0467 6.21333 13.1933 5.82667 11.9867C6.31333 11.9133 6.81333 11.8667 7.33333 11.8467ZM2.4 4.39333C2.93333 4.64667 3.53333 4.86 4.18667 5.03333C4.04667 5.74667 3.96 6.51333 3.92667 7.32H1.36667C1.47333 6.25333 1.84667 5.26 2.4 4.39333ZM1.36667 8.65333H3.92667C3.96 9.47333 4.04667 10.2467 4.18667 10.9667C3.53333 11.14 2.93333 11.3533 2.4 11.6067C1.82524 10.7186 1.47096 9.70603 1.36667 8.65333ZM5.29333 14.0867C4.5336 13.749 3.84391 13.2718 3.26 12.68C3.64 12.5133 4.06 12.3733 4.50667 12.26C4.72 12.9467 4.98667 13.5667 5.29333 14.0867ZM4.50667 3.74C4.06 3.62667 3.64 3.48667 3.26 3.32C3.84 2.73333 4.52667 2.25333 5.29333 1.91333C4.98667 2.43333 4.72 3.05333 4.50667 3.74ZM7.33333 7.32H5.26C5.29333 6.6 5.37333 5.92667 5.49333 5.30667C6.08 5.40667 6.7 5.46 7.33333 5.48667V7.32ZM7.33333 4.15333C6.81333 4.13333 6.31333 4.08667 5.82667 4.01333C6.21333 2.80667 6.76 1.95333 7.33333 1.56667V4.15333ZM8.66667 1.56667C9.24 1.95333 9.78667 2.80667 10.1733 4.01333C9.68667 4.08667 9.18667 4.13333 8.66667 4.15333V1.56667ZM8.66667 7.32V5.48667C9.3 5.46 9.92 5.40667 10.5067 5.30667C10.6267 5.92667 10.7067 6.6 10.74 7.32H8.66667ZM10.7067 1.91333C11.4733 2.25333 12.16 2.73333 12.74 3.32C12.36 3.48667 11.94 3.62667 11.4933 3.74C11.28 3.05333 11.0133 2.43333 10.7067 1.91333ZM12.0733 7.32C12.04 6.51333 11.9533 5.74667 11.8133 5.03333C12.4667 4.86 13.0667 4.64667 13.6 4.39333C14.1533 5.26 14.5267 6.25333 14.6333 7.32H12.0733Z" fill="#A77646"/>
<path d="M11.2781 15.9998H11.2668C11.1638 15.9975 11.064 15.9633 10.9812 15.9021C10.8984 15.8409 10.8365 15.7555 10.8041 15.6578L8.69276 9.32445C8.66332 9.23632 8.65901 9.14174 8.68033 9.0513C8.70165 8.96087 8.74774 8.87816 8.81344 8.81246C8.87914 8.74676 8.96184 8.70067 9.05228 8.67935C9.14271 8.65804 9.2373 8.66234 9.32542 8.69178L15.6588 10.8031C15.7564 10.8358 15.8415 10.8977 15.9026 10.9806C15.9636 11.0634 15.9977 11.1631 16 11.2659C16.0023 11.3688 15.9729 11.4699 15.9156 11.5555C15.8584 11.641 15.7761 11.7067 15.6801 11.7438L12.8381 12.8371L11.7448 15.6791C11.7085 15.7735 11.6445 15.8546 11.5612 15.9119C11.4779 15.9691 11.3792 15.9998 11.2781 15.9998Z" fill="#A77646"/>
</svg>
